<?xml version="1.0" standalone="no"?><!DOCTYPE svg PUBLIC "-//W3C//DTD SVG 1.1//EN" "http://www.w3.org/Graphics/SVG/1.1/DTD/svg11.dtd"><svg t="1609151934135" class="icon" viewBox="0 0 1024 1024" version="1.1" xmlns="http://www.w3.org/2000/svg" p-id="1784" xmlns:xlink="http://www.w3.org/1999/xlink" width="128" height="128"><defs><style type="text/css"></style></defs><path d="M457.6 869.5l-39.9-22.1c-0.4-0.2-0.6-0.8-0.3-1.2l133-239.8c0.2-0.4 0.8-0.6 1.2-0.3l39.9 22.1c0.4 0.2 0.6 0.8 0.3 1.2l-133 239.8c-0.2 0.3-0.8 0.5-1.2 0.3z" fill="#409BF2" p-id="1785"></path><path d="M367 762.9l-0.8-45.6c0-0.5 0.4-0.9 0.8-0.9l274.2-4.7c0.5 0 0.9 0.4 0.9 0.8l0.8 45.6c0 0.5-0.4 0.9-0.8 0.9l-274.2 4.7c-0.5 0.1-0.8-0.3-0.9-0.8z" fill="#409BF2" p-id="1786"></path><path d="M414 631.2l39.1-23.5c0.4-0.2 0.9-0.1 1.2 0.3l141.2 235.1c0.2 0.4 0.1 0.9-0.3 1.2l-39.1 23.5c-0.4 0.2-0.9 0.1-1.2-0.3L413.7 632.4c-0.2-0.4-0.1-0.9 0.3-1.2z" fill="#409BF2" p-id="1787"></path><path d="M740.3 336c-8.1 0-16.1 0.6-23.9 1.5C705.7 234.4 618.3 154 512 154c-106.3 0-193.7 80.4-204.4 183.5-7.9-0.9-15.8-1.5-23.9-1.5-113.5 0-205.5 91.7-205.5 204.8 0 87.5 55.2 162.1 132.7 191.3 12.1 4.6 25-4.7 25-17.7v-2.1c0-8-5.2-14.7-12.6-17.6-61.7-24.1-105.6-84-105.6-153.9 0-91.2 74.4-165.3 165.9-165.3 5.8 0 12.2 0.4 19.4 1.2l22 2.5c1 0.1 1.9 0.3 2.9 0.5 38.2 9.4 72.2 30.4 97.4 60.1 6.1 7.2 16.8 8.2 24.5 2.8l1.8-1.2c9.1-6.4 10.5-19.3 3.3-27.8-28.4-33.1-66-57.2-108.1-69.5l0.3-2.6c8.7-84.4 79.7-148.1 165-148.1s156.3 63.7 165 148.1l2.2 21c1.1 10.3 10.4 17.8 20.7 16.6l21.1-2.4c7.2-0.8 13.5-1.2 19.4-1.2 91.5 0 165.9 74.2 165.9 165.3 0 70-43.9 129.9-105.6 153.9-7.4 2.9-12.6 9.7-12.6 17.6v2.1c0 12.9 12.9 22.2 25 17.7 77.5-29.3 132.7-103.8 132.7-191.3-0.1-113.1-92.1-204.8-205.6-204.8z" p-id="1788"></path></svg>