<?xml version="1.0" standalone="no"?><!DOCTYPE svg PUBLIC "-//W3C//DTD SVG 1.1//EN" "http://www.w3.org/Graphics/SVG/1.1/DTD/svg11.dtd"><svg t="1609151942099" class="icon" viewBox="0 0 1024 1024" version="1.1" xmlns="http://www.w3.org/2000/svg" p-id="2323" xmlns:xlink="http://www.w3.org/1999/xlink" width="128" height="128"><defs><style type="text/css"></style></defs><path d="M307.4 518.5h-56.1c-0.6 0-1.1-0.5-1.1-1.1V179.8c0-0.6 0.5-1.1 1.1-1.1h56.1c0.6 0 1.1 0.5 1.1 1.1v337.6c0 0.6-0.5 1.1-1.1 1.1z" fill="#409BF2" p-id="2324"></path><path d="M146.3 457.8l-28.1-48.6c-0.3-0.5-0.1-1.2 0.4-1.5L411 238.9c0.5-0.3 1.2-0.1 1.5 0.4l28.1 48.6c0.3 0.5 0.1 1.2-0.4 1.5L147.8 458.2c-0.6 0.3-1.2 0.1-1.5-0.4z" fill="#409BF2" p-id="2325"></path><path d="M118.2 287.9l28.1-48.6c0.3-0.5 1-0.7 1.5-0.4l292.4 168.8c0.5 0.3 0.7 1 0.4 1.5l-28.1 48.6c-0.3 0.5-1 0.7-1.5 0.4L118.6 289.4c-0.5-0.3-0.7-1-0.4-1.5z" fill="#409BF2" p-id="2326"></path><path d="M668.6 308.8c-8.1-38.6-39.3-69.7-77.8-77.8-57.9-12.2-109.9 25.1-121.7 77.3-2.6 11.6 7 22.5 18.9 22.5h2.6c9.2 0 16.5-6.6 18.8-15.5 8.4-32.2 42.4-54.1 78.8-42.8 18.3 5.7 33.1 20.5 38.8 38.8 13.1 42-18.2 80.8-58.3 80.8H487c-11.3 0-20.4 9.1-20.4 20.4 0 11.3 9.1 20.4 20.4 20.4h81.7c63.6 0.1 113.8-58.2 99.9-124.1zM729.7 679.7c-4.7 0-9.2-0.1-13.5-0.3-31.9-1.4-64.6-11-94.3-27.9L466 563.1c-9.6-5.4-13-17.6-7.5-27.2 5.4-9.6 17.6-13 27.2-7.5l155.9 88.4c24.3 13.8 50.7 21.6 76.3 22.7 59.4 2.6 137.6-11.5 173.7-92.5 12.8-38.6 10.9-74.9-6.4-106.2-21.1-38-60.8-61.2-83.1-71.2-8.6-3.9-13.2-13.2-11.1-22.5v-0.1c2.7-12.2 15.9-19.1 27.3-14.1 28.6 12.7 74.6 40.2 101.1 87.2 23.3 41.3 26.7 88.3 9.9 139.6-0.4 1.1-0.8 2.3-1.3 3.4-45.1 99.4-138.4 116.6-198.3 116.6zM491.4 895.3c-13.1 0-28.2-2.7-45.3-9.3-11-4.2-15.9-17.3-10.5-27.8 4.7-9.1 15.6-13 25.1-9.3 41.5 16 58.6-0.6 68.1-15.4 16.8-26.3 13.8-63.5-7.3-90.6-23.9-30.6-58.8-56.5-103.9-77.1-87-39.7-175.1-18.1-210.9-6.2-9.7 3.2-20.1-1.4-24.3-10.7l-0.1-0.1c-4.9-10.8 0.4-23.4 11.6-27.2 41.5-14.1 139.9-37.8 240.2 7.8 51 23.3 91 53.1 118.8 88.9 31.9 40.9 35.6 95.8 9.4 136.8-11 17.4-32.9 40.2-70.9 40.2z" p-id="2327"></path></svg>