<?xml version="1.0" standalone="no"?><!DOCTYPE svg PUBLIC "-//W3C//DTD SVG 1.1//EN" "http://www.w3.org/Graphics/SVG/1.1/DTD/svg11.dtd"><svg t="1609151947780" class="icon" viewBox="0 0 1024 1024" version="1.1" xmlns="http://www.w3.org/2000/svg" p-id="2736" xmlns:xlink="http://www.w3.org/1999/xlink" width="128" height="128"><defs><style type="text/css"></style></defs><path d="M746.7 283.8c-8.3 0-16.4 0.6-24.4 1.5-10.9-105.2-100-187.2-208.5-187.2-108.4 0-197.6 82-208.5 187.2-8-0.9-16.1-1.5-24.4-1.5-115.8 0-209.6 93.5-209.6 208.8 0 89.3 56.3 165.3 135.4 195.1 12.3 4.7 25.5-4.8 25.5-18v-2.1c0-8.1-5.3-15-12.8-18-63-24.6-107.7-85.7-107.7-157 0-93 75.9-168.6 169.2-168.6 6 0 12.4 0.4 19.8 1.3l22.4 2.6c1 0.1 2 0.3 3 0.5 39 9.6 73.6 31 99.3 61.3 6.2 7.3 17.1 8.3 25 2.8l1.8-1.3c9.3-6.5 10.8-19.7 3.3-28.3-29-33.8-67.3-58.3-110.3-70.9l0.3-2.6c8.9-86.1 81.3-151.1 168.3-151.1 87 0 159.4 64.9 168.3 151.1l2.2 21.4c1.1 10.5 10.6 18.2 21.1 16.9l21.5-2.5c7.3-0.8 13.8-1.3 19.8-1.3C840 324 916 399.7 916 492.6c0 71.4-44.7 132.4-107.7 157-7.6 3-12.8 9.9-12.8 18v2.1c0 13.2 13.2 22.7 25.5 18 79.1-29.8 135.4-105.9 135.4-195.1-0.1-115.3-93.9-208.8-209.7-208.8z" p-id="2737"></path><path d="M602 659.1c0 37.3-30.3 67.6-67.6 67.6s-67.6-30.3-67.6-67.6 25.6-55.9 64.1-94.4c46.7 44.2 71.1 57.1 71.1 94.4zM466.8 814.3c0 37.3-30.3 67.6-67.6 67.6s-67.6-30.3-67.6-67.6 25.6-55.9 64.1-94.4c46.7 44.1 71.1 57.1 71.1 94.4zM724.7 814.3c0 37.3-30.3 67.6-67.6 67.6s-67.6-30.3-67.6-67.6 25.6-55.9 64.1-94.4c46.7 44.1 71.1 57.1 71.1 94.4z" fill="#409BF2" p-id="2738"></path></svg>