<?xml version="1.0" standalone="no"?><!DOCTYPE svg PUBLIC "-//W3C//DTD SVG 1.1//EN" "http://www.w3.org/Graphics/SVG/1.1/DTD/svg11.dtd"><svg t="1609151697483" class="icon" viewBox="0 0 1024 1024" version="1.1" xmlns="http://www.w3.org/2000/svg" p-id="958" width="128" height="128" xmlns:xlink="http://www.w3.org/1999/xlink"><defs><style type="text/css"></style></defs><path d="M344.1 484m-233.4 0a233.4 233.4 0 1 0 466.8 0 233.4 233.4 0 1 0-466.8 0Z" fill="#FFE000" p-id="959"></path><path d="M344.1 184.9m-21.9 0a21.9 21.9 0 1 0 43.8 0 21.9 21.9 0 1 0-43.8 0Z" fill="#FFE000" p-id="960"></path><path d="M132.6 272.5m-21.9 0a21.9 21.9 0 1 0 43.8 0 21.9 21.9 0 1 0-43.8 0Z" fill="#FFE000" p-id="961"></path><path d="M45 484m-21.9 0a21.9 21.9 0 1 0 43.8 0 21.9 21.9 0 1 0-43.8 0Z" fill="#FFE000" p-id="962"></path><path d="M132.6 695.5m-21.9 0a21.9 21.9 0 1 0 43.8 0 21.9 21.9 0 1 0-43.8 0Z" fill="#FFE000" p-id="963"></path><path d="M555.6 272.5m-21.9 0a21.9 21.9 0 1 0 43.8 0 21.9 21.9 0 1 0-43.8 0Z" fill="#FFE000" p-id="964"></path><path d="M719.4 520.3c-23.3 0-44.4-9.6-59.4-22-8.7-7.2-39.8-28.4-74.2 0-43.3 35.6-90.2 22.2-117.2 0-7.2-5.9-8.2-16.6-2.3-23.8 5.9-7.2 16.6-8.3 23.8-2.3 8.7 7.2 39.9 28.3 74.3 0 43.3-35.6 90.2-22.3 117.2 0 8.7 7.2 39.8 28.4 74.2 0 7.2-5.9 17.9-4.9 23.8 2.3 5.9 7.2 4.9 17.9-2.3 23.8-19.4 15.9-39.3 22-57.9 22zM675.6 805.9c-20.9 0-43.4-6.9-65-24.7-41.2-33.9-78.4-8.6-88.9 0-30.4 25-83.1 40-131.8 0-32-26.4-63.4-2.7-66.9 0.1-7.2 5.8-17.9 4.7-23.7-2.5-5.9-7.2-4.8-17.8 2.3-23.7 19-15.6 66.3-35.7 109.7 0 41.2 33.9 78.4 8.6 88.9 0 30.4-25 83.1-40 131.8 0 41.2 33.9 78.4 8.6 88.9 0 7.2-5.9 17.9-4.9 23.8 2.3 5.9 7.2 4.9 17.9-2.3 23.8-16.8 13.9-40.6 24.7-66.8 24.7zM709.3 666.4c-20.9 0-43.4-6.9-65-24.7-33-27.2-65.4-1.1-66.8 0-7.2 5.9-17.9 4.9-23.8-2.3-5.9-7.2-4.9-17.9 2.3-23.8 19-15.6 66.3-35.7 109.7 0 41.2 33.9 78.4 8.6 88.9 0 30.4-25 83.2-40 131.8 0 41.2 33.9 78.4 8.6 88.9 0 7.2-5.9 17.9-4.9 23.8 2.3 5.9 7.2 4.9 17.9-2.3 23.8-30.4 25-83.1 40-131.8 0-41.2-33.9-78.4-8.6-88.9 0-16.9 13.9-40.7 24.7-66.8 24.7z" p-id="965"></path></svg>