<?xml version="1.0" standalone="no"?><!DOCTYPE svg PUBLIC "-//W3C//DTD SVG 1.1//EN" "http://www.w3.org/Graphics/SVG/1.1/DTD/svg11.dtd"><svg t="1609151926476" class="icon" viewBox="0 0 1024 1024" version="1.1" xmlns="http://www.w3.org/2000/svg" p-id="1378" xmlns:xlink="http://www.w3.org/1999/xlink" width="128" height="128"><defs><style type="text/css"></style></defs><path d="M276.2 385.7m-163.5 0a163.5 163.5 0 1 0 327 0 163.5 163.5 0 1 0-327 0Z" fill="#FFE000" p-id="1379"></path><path d="M276.2 176.2m-15.3 0a15.3 15.3 0 1 0 30.6 0 15.3 15.3 0 1 0-30.6 0Z" fill="#FFE000" p-id="1380"></path><path d="M128 237.5m-15.3 0a15.3 15.3 0 1 0 30.6 0 15.3 15.3 0 1 0-30.6 0Z" fill="#FFE000" p-id="1381"></path><path d="M66.7 385.7m-15.3 0a15.3 15.3 0 1 0 30.6 0 15.3 15.3 0 1 0-30.6 0Z" fill="#FFE000" p-id="1382"></path><path d="M424.3 237.5m-15.3 0a15.3 15.3 0 1 0 30.6 0 15.3 15.3 0 1 0-30.6 0Z" fill="#FFE000" p-id="1383"></path><path d="M727.7 441.1c-7.7 0-15.3 0.6-22.7 1.4-10.1-97.9-93.2-174.3-194.2-174.3s-184 76.4-194.2 174.3c-7.5-0.9-15-1.4-22.7-1.4-107.8 0-195.2 87.1-195.2 194.5s87.4 194.5 195.2 194.5h433.8c107.8 0 195.2-87.1 195.2-194.5s-87.4-194.5-195.2-194.5z m0 351.6H293.9c-87 0-157.7-70.5-157.7-157.1S207 478.5 293.9 478.5c5.6 0 11.6 0.4 18.4 1.2l16.4 1.9-0.1 0.4c36.8 8.5 69.7 28.5 94 57 6.1 7.2 16.9 8.2 24.6 2.8 9.1-6.4 10.6-19.3 3.3-27.8-25.8-29.9-59.4-52-97.1-64l0.4-3.7c8.3-80.2 75.8-140.7 156.9-140.7s148.6 60.5 156.9 140.7l2 18.9c1.1 10.4 10.4 17.9 20.8 16.7l18.9-2.2c6.8-0.8 12.9-1.2 18.4-1.2 87 0 157.7 70.5 157.7 157.1s-70.7 157.1-157.7 157.1z" p-id="1384"></path></svg>