<?xml version="1.0" standalone="no"?><!DOCTYPE svg PUBLIC "-//W3C//DTD SVG 1.1//EN" "http://www.w3.org/Graphics/SVG/1.1/DTD/svg11.dtd"><svg t="1609151943785" class="icon" viewBox="0 0 1024 1024" version="1.1" xmlns="http://www.w3.org/2000/svg" p-id="2459" xmlns:xlink="http://www.w3.org/1999/xlink" width="128" height="128"><defs><style type="text/css"></style></defs><path d="M433.9 711.8l-0.6-32.7c0-0.4 0.3-0.7 0.7-0.7l133.8-2.3c0.4 0 0.7 0.3 0.7 0.7l0.6 32.7c0 0.4-0.3 0.7-0.7 0.7l-133.8 2.3c-0.3 0-0.7-0.3-0.7-0.7z" fill="#409BF2" p-id="2460"></path><path d="M518.8 761.6l-32.7 0.6c-0.4 0-0.7-0.3-0.7-0.7L483 627.7c0-0.4 0.3-0.7 0.7-0.7l32.7-0.6c0.4 0 0.7 0.3 0.7 0.7l2.3 133.8c0.1 0.4-0.2 0.7-0.6 0.7zM252.1 822.9l-0.6-32.7c0-0.4 0.3-0.7 0.7-0.7l133.8-2.3c0.4 0 0.7 0.3 0.7 0.7l0.6 32.7c0 0.4-0.3 0.7-0.7 0.7l-133.8 2.3c-0.4 0-0.7-0.3-0.7-0.7z" fill="#409BF2" p-id="2461"></path><path d="M337 872.7l-32.7 0.6c-0.4 0-0.7-0.3-0.7-0.7l-2.3-133.8c0-0.4 0.3-0.7 0.7-0.7l32.7-0.6c0.4 0 0.7 0.3 0.7 0.7l2.3 133.8c0 0.3-0.3 0.7-0.7 0.7z" fill="#409BF2" p-id="2462"></path><path d="M584.3 837.6l-0.6-32.7c0-0.4 0.3-0.7 0.7-0.7l133.8-2.3c0.4 0 0.7 0.3 0.7 0.7l0.6 32.7c0 0.4-0.3 0.7-0.7 0.7L585 838.3c-0.3 0-0.7-0.3-0.7-0.7z" fill="#409BF2" p-id="2463"></path><path d="M669.2 887.4l-32.7 0.6c-0.4 0-0.7-0.3-0.7-0.7l-2.3-133.8c0-0.4 0.3-0.7 0.7-0.7l32.7-0.6c0.4 0 0.7 0.3 0.7 0.7l2.3 133.8c0 0.4-0.3 0.7-0.7 0.7z" fill="#409BF2" p-id="2464"></path><path d="M734.1 313.2c-7.9 0-15.7 0.6-23.4 1.5-10.4-100.6-95.7-179-199.4-179s-189 78.4-199.4 179c-7.7-0.9-15.4-1.5-23.4-1.5C177.8 313.2 88 402.6 88 513c0 85.4 53.8 158.1 129.5 186.7 11.8 4.5 24.4-4.6 24.4-17.2v-2c0-7.8-5-14.4-12.3-17.2-60.2-23.5-103-81.9-103-150.2 0-88.9 72.6-161.3 161.9-161.3 5.7 0 11.9 0.4 18.9 1.2l21.4 2.5c0.9 0.1 1.9 0.3 2.8 0.5 37.3 9.1 70.4 29.7 95 58.6 5.9 7 16.4 8 23.9 2.7l1.7-1.2c8.9-6.3 10.3-18.8 3.2-27.1-27.7-32.3-64.3-55.8-105.5-67.8l0.3-2.5c8.5-82.4 77.7-144.5 161-144.5 83.2 0 152.5 62.1 161 144.5l2.1 20.4c1 10.1 10.1 17.4 20.2 16.2l20.5-2.4c7-0.8 13.2-1.2 18.9-1.2 89.2 0 161.9 72.4 161.9 161.3 0 68.3-42.8 126.7-103 150.2-7.2 2.8-12.3 9.4-12.3 17.2v2c0 12.6 12.6 21.7 24.4 17.2 75.6-28.6 129.5-101.3 129.5-186.7 0.1-110.3-89.6-199.7-200.3-199.7z" p-id="2465"></path></svg>