<?xml version="1.0" standalone="no"?><!DOCTYPE svg PUBLIC "-//W3C//DTD SVG 1.1//EN" "http://www.w3.org/Graphics/SVG/1.1/DTD/svg11.dtd"><svg t="1609151931597" class="icon" viewBox="0 0 1024 1024" version="1.1" xmlns="http://www.w3.org/2000/svg" p-id="1649" xmlns:xlink="http://www.w3.org/1999/xlink" width="128" height="128"><defs><style type="text/css"></style></defs><path d="M798.8 234c-4.7 0-9.4 0.3-13.9 0.9-6.2-60-57.1-106.8-118.9-106.8s-112.8 46.8-119 106.8c-4.6-0.5-9.2-0.9-13.9-0.9-66 0-119.6 53.3-119.6 119.1S467 472.3 533.1 472.3h265.7c66 0 119.6-53.3 119.6-119.1S864.8 234 798.8 234z" fill="#BFDFF7" p-id="1650"></path><path d="M720.9 335.6c-7.9 0-15.6 0.6-23.2 1.5-10.3-99.9-95.1-177.9-198.1-177.9s-187.7 77.9-198.1 177.9c-7.6-0.9-15.3-1.5-23.2-1.5-110 0-199.2 88.9-199.2 198.5 0 84.8 53.5 157.1 128.6 185.4 11.7 4.4 24.3-4.6 24.3-17.1v-2c0-7.7-5-14.3-12.2-17.1-59.8-23.4-102.3-81.4-102.3-149.2 0-88.4 72.1-160.2 160.8-160.2 5.7 0 11.8 0.4 18.8 1.2l19.8 2.3c1.9 0.3 3.9 0.7 5.8 1 36.4 9.3 68.8 29.5 92.9 57.9 5.9 7 16.3 7.9 23.7 2.7l1.7-1.2c8.9-6.2 10.2-18.7 3.2-26.9-27.5-32.1-63.9-55.4-104.8-67.3l0.3-2.5c8.5-81.8 77.2-143.6 159.9-143.6s151.5 61.7 159.9 143.6l0.1 0.8c2.1 20.7 20.8 35.7 41.5 33.3l1-0.1c7-0.8 13.1-1.2 18.8-1.2 88.7 0 160.8 71.9 160.8 160.2 0 36.4-12.6 69.8-33.2 96.7-2.6 3.4-4.1 7.4-4.1 11.7 0 18.6 23.6 26.5 34.9 11.8 25.6-33.3 40.8-74.9 40.8-120.1 0-109.7-89.2-198.6-199.2-198.6z" p-id="1651"></path><path d="M802.4 629c-6.2-29.4-29.9-53.1-59.3-59.3-4.3-0.9-8.6-1.2-12.8-1.4h-43c-8.8 0-15.9 6.9-15.9 15.5 0 8.5 7.1 15.5 15.9 15.5h43c3.6 0.3 7.2 0.9 10.9 2.1 13.9 4.3 25.2 15.6 29.5 29.5 10 32-13.8 61.5-44.4 61.5h-62.2c-8.6 0-15.6 7-15.6 15.6s7 15.6 15.6 15.6h62.2c48.4-0.1 86.6-44.5 76.1-94.6zM608.4 692.1H343.5c-8.8 0-15.9 6.8-15.9 15.3 0 8.4 7.1 15.3 15.9 15.3h264.9c8.8 0 15.9-6.8 15.9-15.3s-7.1-15.3-15.9-15.3zM599.7 768.2c-0.1 0-0.1 0 0 0H187.9c-7.3 0-13.1 5.9-13.1 13.1 0 7.3 5.9 13.2 13.1 13.2H599.3c14.6-0.8 26.5 11.4 26.7 25.9 0.2 14.5-11.8 26.5-26.3 26.7h-13.1c-7.3 0-13.2 5.9-13.2 13.2s5.9 13.2 13.2 13.2h13.1c29-0.4 53-24.3 52.6-53.3-0.5-29-24-52-52.6-52zM853.9 768.2h-169c-7.3 0-13.2 5.9-13.2 13.2 0 7.3 5.9 13.2 13.2 13.2h169c7.3 0 13.2-5.9 13.2-13.2 0-7.3-5.9-13.2-13.2-13.2z" p-id="1652"></path></svg>