<?xml version="1.0" standalone="no"?><!DOCTYPE svg PUBLIC "-//W3C//DTD SVG 1.1//EN" "http://www.w3.org/Graphics/SVG/1.1/DTD/svg11.dtd"><svg t="1609151938385" class="icon" viewBox="0 0 1024 1024" version="1.1" xmlns="http://www.w3.org/2000/svg" p-id="2055" xmlns:xlink="http://www.w3.org/1999/xlink" width="128" height="128"><defs><style type="text/css"></style></defs><path d="M733.5 298.9c-7.8 0-15.5 0.6-23.1 1.5-10.3-99.6-94.7-177.2-197.4-177.2-102.6 0-187.1 77.7-197.4 177.2-7.6-0.9-15.3-1.5-23.1-1.5-109.6 0-198.4 88.5-198.4 197.7 0 84.5 53.3 156.5 128.2 184.8 11.7 4.4 24.2-4.6 24.2-17.1v-2c0-7.7-5-14.2-12.1-17-59.6-23.3-102-81.1-102-148.7 0-88 71.9-159.7 160.2-159.7 5.6 0 11.8 0.4 18.7 1.2l21.2 2.5c0.9 0.1 1.9 0.3 2.8 0.5 36.9 9 69.7 29.4 94 58 5.9 6.9 16.2 7.9 23.7 2.7l1.7-1.2c8.8-6.2 10.2-18.6 3.2-26.8-27.4-32-63.7-55.2-104.4-67.1l0.3-2.5c8.4-81.5 76.9-143 159.3-143s150.9 61.5 159.3 143l2.1 20.2c1 10 10 17.2 20 16l20.3-2.4c7-0.8 13.1-1.2 18.7-1.2 88.3 0 160.2 71.6 160.2 159.7 0 67.6-42.3 125.4-102 148.7-7.2 2.8-12.1 9.3-12.1 17v2c0 12.5 12.5 21.5 24.2 17.1C878.7 653 932 581.1 932 496.5c-0.1-109.1-88.9-197.6-198.5-197.6z" p-id="2056"></path><path d="M626.7 734.1c0 62.8-50.9 113.7-113.7 113.7s-113.7-50.9-113.7-113.7 43-94 107.8-158.8c78.6 74.3 119.6 96 119.6 158.8z" fill="#409BF2" p-id="2057"></path></svg>