<?xml version="1.0" standalone="no"?><!DOCTYPE svg PUBLIC "-//W3C//DTD SVG 1.1//EN" "http://www.w3.org/Graphics/SVG/1.1/DTD/svg11.dtd"><svg t="1609151949525" class="icon" viewBox="0 0 1024 1024" version="1.1" xmlns="http://www.w3.org/2000/svg" p-id="2870" xmlns:xlink="http://www.w3.org/1999/xlink" width="128" height="128"><defs><style type="text/css"></style></defs><path d="M510.6 513.2m-302.2 0a302.2 302.2 0 1 0 604.4 0 302.2 302.2 0 1 0-604.4 0Z" fill="#FFE000" p-id="2871"></path><path d="M510.6 126m-28.3 0a28.3 28.3 0 1 0 56.6 0 28.3 28.3 0 1 0-56.6 0Z" fill="#FFE000" p-id="2872"></path><path d="M236.7 239.4m-28.3 0a28.3 28.3 0 1 0 56.6 0 28.3 28.3 0 1 0-56.6 0Z" fill="#FFE000" p-id="2873"></path><path d="M123.3 513.2m-28.3 0a28.3 28.3 0 1 0 56.6 0 28.3 28.3 0 1 0-56.6 0Z" fill="#FFE000" p-id="2874"></path><path d="M236.7 787m-28.3 0a28.3 28.3 0 1 0 56.6 0 28.3 28.3 0 1 0-56.6 0Z" fill="#FFE000" p-id="2875"></path><path d="M510.6 900.5m-28.3 0a28.3 28.3 0 1 0 56.6 0 28.3 28.3 0 1 0-56.6 0Z" fill="#FFE000" p-id="2876"></path><path d="M784.4 787m-28.3 0a28.3 28.3 0 1 0 56.6 0 28.3 28.3 0 1 0-56.6 0Z" fill="#FFE000" p-id="2877"></path><path d="M897.8 513.2m-28.3 0a28.3 28.3 0 1 0 56.6 0 28.3 28.3 0 1 0-56.6 0Z" fill="#FFE000" p-id="2878"></path><path d="M784.4 239.4m-28.3 0a28.3 28.3 0 1 0 56.6 0 28.3 28.3 0 1 0-56.6 0Z" fill="#FFE000" p-id="2879"></path></svg>