<?xml version="1.0" standalone="no"?><!DOCTYPE svg PUBLIC "-//W3C//DTD SVG 1.1//EN" "http://www.w3.org/Graphics/SVG/1.1/DTD/svg11.dtd"><svg t="1609151928889" class="icon" viewBox="0 0 1024 1024" version="1.1" xmlns="http://www.w3.org/2000/svg" p-id="1516" xmlns:xlink="http://www.w3.org/1999/xlink" width="128" height="128"><defs><style type="text/css"></style></defs><path d="M469.4 301.9c-8.8-38.2-39.8-69.2-78-78-57-13.1-108.9 20.2-125.4 69.6-5.5 16.5 7.7 33.4 25 33.4 11 0 21.7-6.3 25.2-16.7 7-21 26.9-36.2 50.2-36.2 29.2 0 52.9 23.7 52.9 52.9s-23.7 52.9-52.9 52.9H128.3c-14.6 0-26.5 11.8-26.5 26.5 0 14.6 11.8 26.5 26.5 26.5h238.1c66.6-0.1 118.9-61.8 103-130.9zM477.7 561h-220c-15.2 0-27.5-11.8-27.5-26.5 0-14.6 12.3-26.5 27.5-26.5h220c15.2 0 27.5 11.8 27.5 26.5S492.9 561 477.7 561zM856.5 398.9c-10.7-50.8-51.8-91.9-102.6-102.6-76.3-16-144.9 33.1-160.4 102-3.5 15.3 9.3 29.7 25 29.7h3.5c12.1 0 21.7-8.7 24.8-20.4 11.1-42.4 55.9-71.4 103.9-56.4 24.1 7.5 43.7 27.1 51.1 51.1 17.3 55.4-23.9 106.5-76.8 106.5H617.1c-14.9 0-26.9 12.1-26.9 26.9 0 14.9 12.1 26.9 26.9 26.9h107.8c83.7 0 149.8-76.8 131.6-163.7zM553.4 639.9H120.8c-12.6 0-22.8 10.2-22.8 22.8 0 12.6 10.2 22.8 22.8 22.8h432c25.2-1.4 45.8 19.8 46.2 44.9 0.4 25.1-20.4 45.8-45.5 46.2h-22.8c-12.6 0-22.8 10.2-22.8 22.8s10.2 22.8 22.8 22.8h22.8c50.2-0.7 91.8-42.1 91.1-92.4-0.9-49.9-41.6-89.9-91.2-89.9zM926.7 685.7H689c-0.7 0-1.3-0.6-1.3-1.2v-43.3c0-0.7 0.6-1.3 1.3-1.3h237.7c0.7 0 1.3 0.6 1.3 1.3v43.3c0 0.7-0.6 1.2-1.3 1.2z" p-id="1517"></path></svg>