<?xml version="1.0" standalone="no"?><!DOCTYPE svg PUBLIC "-//W3C//DTD SVG 1.1//EN" "http://www.w3.org/Graphics/SVG/1.1/DTD/svg11.dtd"><svg t="1609151955799" class="icon" viewBox="0 0 1024 1024" version="1.1" xmlns="http://www.w3.org/2000/svg" p-id="3287" xmlns:xlink="http://www.w3.org/1999/xlink" width="128" height="128"><defs><style type="text/css"></style></defs><path d="M652.5 298.6c0-28.6 5.5-55.9 15.1-81.2-18.9-4.5-38.6-7.2-58.9-7.2-139.8 0-253.1 113.3-253.1 253.1s113.3 253.1 253.1 253.1c118.2 0 217.3-81.2 245.1-190.8-113.4-13.6-201.3-110-201.3-227z" fill="#8A61FF" p-id="3288"></path><path d="M425.4 486.8c-21.6 0-41.3-9-55.3-20.5-8.1-6.7-37.1-26.4-69.1 0-40.3 33.1-83.9 20.7-109.1 0-6.7-5.5-7.7-15.4-2.1-22.1 5.5-6.7 15.4-7.7 22.1-2.1 8.1 6.7 37.1 26.4 69.1 0 40.3-33.2 83.9-20.7 109.1 0 8.1 6.7 37 26.4 69.1 0 6.7-5.5 16.6-4.6 22.1 2.1s4.5 16.6-2.1 22.1c-18 14.8-36.5 20.5-53.8 20.5zM416.9 769.4c-19.5 0-40.3-6.4-60.5-23-38.3-31.6-73-8-82.7 0-28.3 23.3-77.4 37.2-122.6 0-29.8-24.5-59-2.5-62.3 0.1-6.7 5.4-16.6 4.4-22.1-2.3s-4.5-16.5 2.2-22c17.7-14.5 61.7-33.2 102.1 0 38.4 31.5 73 8 82.7 0 28.3-23.2 77.4-37.2 122.6 0 38.4 31.5 73 8 82.7 0 6.7-5.5 16.6-4.5 22.1 2.2s4.5 16.6-2.2 22.1c-15.5 12.9-37.6 22.9-62 22.9zM373.7 619.7c-19.5 0-40.3-6.4-60.5-23-30.7-25.3-60.9-1.1-62.1 0-6.7 5.5-16.6 4.6-22.1-2.2-5.5-6.7-4.5-16.6 2.2-22.1 17.6-14.5 61.7-33.2 102.1 0 38.4 31.6 73 8 82.7 0 28.3-23.3 77.4-37.2 122.6 0 38.4 31.6 73 8 82.7 0 6.7-5.5 16.6-4.5 22.1 2.2s4.5 16.6-2.1 22.1c-28.3 23.3-77.4 37.2-122.6 0-38.4-31.5-73-8-82.7 0-15.9 13-38 23-62.3 23z" p-id="3289"></path><path d="M311.7 253.8m-23.9 0a23.9 23.9 0 1 0 47.8 0 23.9 23.9 0 1 0-47.8 0Z" fill="#B76BF9" p-id="3290"></path><path d="M922.4 699.2m-23.9 0a23.9 23.9 0 1 0 47.8 0 23.9 23.9 0 1 0-47.8 0Z" fill="#B76BF9" p-id="3291"></path><path d="M874.6 377.3m-23.9 0a23.9 23.9 0 1 0 47.8 0 23.9 23.9 0 1 0-47.8 0Z" p-id="3292"></path></svg>