<?xml version="1.0" standalone="no"?><!DOCTYPE svg PUBLIC "-//W3C//DTD SVG 1.1//EN" "http://www.w3.org/Graphics/SVG/1.1/DTD/svg11.dtd"><svg t="1609151940282" class="icon" viewBox="0 0 1024 1024" version="1.1" xmlns="http://www.w3.org/2000/svg" p-id="2189" xmlns:xlink="http://www.w3.org/1999/xlink" width="128" height="128"><defs><style type="text/css"></style></defs><path d="M821 372.9c-5.2 0-10.3 0.4-15.4 1-6.9-66.3-63-117.9-131.3-117.9S549.8 307.6 543 373.9c-5.1-0.6-10.2-1-15.4-1-72.9 0-132.1 58.9-132.1 131.6s59.1 131.6 132.1 131.6H821c72.9 0 132.1-58.9 132.1-131.6S894 372.9 821 372.9z" fill="#BFDFF7" p-id="2190"></path><path d="M645.6 426.7c-6.8 0-13.5 0.5-20.1 1.3-9-86.6-82.4-154.1-171.6-154.1S291.3 341.4 282.3 428c-6.6-0.8-13.3-1.3-20.1-1.3-95.3 0-172.5 77-172.5 171.9s77.2 171.9 172.5 171.9h383.4c95.3 0 172.5-77 172.5-171.9s-77.3-171.9-172.5-171.9z m0 310.7H262.2c-76.9 0-139.4-62.3-139.4-138.8 0-76.5 62.5-138.8 139.4-138.8 4.9 0 10.2 0.3 16.3 1l14.5 1.7-0.1 0.3c32.6 7.5 61.6 25.2 83.1 50.4 5.4 6.4 14.9 7.3 21.7 2.5 8-5.7 9.4-17.1 3-24.5-22.8-26.4-52.5-46-85.8-56.5l0.3-3.3c7.3-70.9 66.9-124.4 138.7-124.4s131.3 53.5 138.7 124.4l1.7 16.7c0.9 9.2 9.2 15.8 18.3 14.7l16.7-1.9c6.1-0.7 11.4-1 16.3-1 76.9 0 139.4 62.3 139.4 138.8 0 76.4-62.6 138.7-139.4 138.7z" p-id="2191"></path></svg>