<?xml version="1.0" standalone="no"?><!DOCTYPE svg PUBLIC "-//W3C//DTD SVG 1.1//EN" "http://www.w3.org/Graphics/SVG/1.1/DTD/svg11.dtd"><svg t="1609151961080" class="icon" viewBox="0 0 1024 1024" version="1.1" xmlns="http://www.w3.org/2000/svg" p-id="3696" xmlns:xlink="http://www.w3.org/1999/xlink" width="128" height="128"><defs><style type="text/css"></style></defs><path d="M801.6 259.9c-4.7 0-9.4 0.3-14 0.9-6.2-60.2-57.2-107.1-119.3-107.1S555.2 200.6 549 260.8c-4.6-0.5-9.2-0.9-14-0.9-66.2 0-119.9 53.5-119.9 119.5S468.8 498.9 535 498.9h266.5c66.2 0 119.9-53.5 119.9-119.5s-53.5-119.5-119.8-119.5z" fill="#BFDFF7" p-id="3697"></path><path d="M527.9 690.3l-30.4-20c-0.5-0.3-0.6-0.9-0.3-1.4L578.1 546c0.3-0.5 0.9-0.6 1.4-0.3l30.4 20c0.5 0.3 0.6 0.9 0.3 1.4l-81 122.9c-0.3 0.5-0.9 0.6-1.3 0.3zM663.6 697.1l-30.4-20c-0.5-0.3-0.6-0.9-0.3-1.4l80.9-122.9c0.3-0.5 0.9-0.6 1.4-0.3l30.4 20c0.5 0.3 0.6 0.9 0.3 1.4l-80.9 123c-0.3 0.4-0.9 0.6-1.4 0.2zM510.9 868.4l-29.1-21.8c-0.4-0.3-0.5-1-0.2-1.4l91.1-121.6c0.3-0.4 1-0.5 1.4-0.2l29.1 21.8c0.4 0.3 0.5 1 0.2 1.4l-91.1 121.6c-0.3 0.4-0.9 0.5-1.4 0.2zM641.1 877.3l-30.4-20c-0.5-0.3-0.6-0.9-0.3-1.4l107.7-163.7c0.3-0.5 0.9-0.6 1.4-0.3l30.4 20c0.5 0.3 0.6 0.9 0.3 1.4L642.5 877.1c-0.3 0.4-0.9 0.5-1.4 0.2z" p-id="3698"></path><path d="M716.2 357.4c-7.9 0-15.6 0.6-23.3 1.5-10.4-100.2-95.4-178.4-198.7-178.4s-188.3 78.2-198.7 178.4c-7.6-0.9-15.4-1.5-23.3-1.5-110.3 0-199.8 89.1-199.8 199.1 0 85.1 53.6 157.5 129 186 11.8 4.4 24.3-4.6 24.3-17.2v-2c0-7.7-5-14.3-12.2-17.1-60-23.4-102.6-81.6-102.6-149.7 0-88.6 72.4-160.7 161.3-160.7 5.7 0 11.8 0.4 18.8 1.2l21.3 2.5c0.9 0.1 1.9 0.3 2.8 0.5 37.1 9.1 70.2 29.6 94.7 58.4 5.9 7 16.3 7.9 23.8 2.7l1.7-1.2c8.9-6.2 10.3-18.8 3.2-27-27.6-32.2-64.1-55.6-105.1-67.5l0.3-2.5c8.5-82.1 77.5-144 160.4-144s151.9 61.9 160.4 144l2.1 20.4c1 10 10.1 17.3 20.1 16.1l20.5-2.4c7-0.8 13.2-1.2 18.8-1.2 88.9 0 161.3 72.1 161.3 160.7 0 68-42.6 126.2-102.6 149.7-7.2 2.8-12.2 9.4-12.2 17.1v2c0 12.6 12.6 21.6 24.3 17.2 75.4-28.4 129-100.9 129-186 0.1-110-89.3-199.1-199.6-199.1z" p-id="3699"></path><path d="M352.4 678.6l89.8-124.5-153.6 130.8-42.6 36.3 101.5 36.4c5.6 2 7.7 8.8 4.2 13.6L265 891.5l153.6-130.8 42.6-36.3L357 692.3c-5.8-1.8-8.1-8.8-4.6-13.7z" fill="#FFA63F" p-id="3700"></path></svg>