<?xml version="1.0" standalone="no"?><!DOCTYPE svg PUBLIC "-//W3C//DTD SVG 1.1//EN" "http://www.w3.org/Graphics/SVG/1.1/DTD/svg11.dtd"><svg t="1609207762331" class="icon" viewBox="0 0 1024 1024" version="1.1" xmlns="http://www.w3.org/2000/svg" p-id="843" xmlns:xlink="http://www.w3.org/1999/xlink" width="128" height="128"><defs><style type="text/css"></style></defs><path d="M896 448a128 128 0 0 1-128 128H281.6a153.6 153.6 0 0 1 0-307.2c2.304 0 4.352 0.256 6.656 0.256A204.5952 204.5952 0 0 1 667.904 225.28 89.4464 89.4464 0 0 1 793.6 307.2a97.28 97.28 0 0 1-1.536 15.104A128.256 128.256 0 0 1 896 448z" fill="#ADD1EB" p-id="844"></path><path d="M611.072 736a24.3712 24.3712 0 0 0-33.536-8.96l-40.96 23.808v-47.616a24.448 24.448 0 1 0-48.896 0v47.616l-41.216-23.808a24.2944 24.2944 0 0 0-33.28 8.96 24.7552 24.7552 0 0 0 8.704 33.792l41.216 24.064-41.216 23.808a24.8064 24.8064 0 0 0-8.704 33.792 24.064 24.064 0 0 0 33.28 8.96l41.216-23.808v47.616a24.448 24.448 0 1 0 48.896 0v-47.616l40.96 23.808a24.576 24.576 0 0 0 33.536-8.96 24.8832 24.8832 0 0 0-8.96-33.792l-40.96-23.808 40.96-24.064a24.832 24.832 0 0 0 8.96-33.792z" fill="#2380FF" p-id="845"></path><path d="M238.848 652.8s89.6 116.992 89.6 166.4a89.6 89.6 0 0 1-179.2 0c0-49.408 89.6-166.4 89.6-166.4z" fill="#4198FF" p-id="846"></path><path d="M776.192 652.8s89.6 116.992 89.6 166.4a89.6 89.6 0 0 1-179.2 0c0-49.408 89.6-166.4 89.6-166.4z" fill="#4198FF" p-id="847"></path></svg>