<?xml version="1.0" standalone="no"?><!DOCTYPE svg PUBLIC "-//W3C//DTD SVG 1.1//EN" "http://www.w3.org/Graphics/SVG/1.1/DTD/svg11.dtd"><svg t="1609151936166" class="icon" viewBox="0 0 1024 1024" version="1.1" xmlns="http://www.w3.org/2000/svg" p-id="1920" xmlns:xlink="http://www.w3.org/1999/xlink" width="128" height="128"><defs><style type="text/css"></style></defs><path d="M614.2 852.7c-22.7 0-47-6.5-70.4-23.2-44.6-31.9-84.9-8.1-96.3 0-32.9 23.5-90.1 37.7-142.7 0-34.7-24.8-68.7-2.6-72.5 0.1-7.8 5.5-19.4 4.4-25.7-2.4-6.3-6.8-5.2-16.7 2.5-22.3 20.6-14.7 71.8-33.6 118.9 0 44.7 31.9 85 8.1 96.3 0 32.9-23.5 90.1-37.6 142.7 0 44.7 31.9 84.9 8.1 96.3 0 7.8-5.6 19.4-4.6 25.8 2.2 6.4 6.8 5.3 16.8-2.5 22.4-18.3 13-44.1 23.2-72.4 23.2zM756.7 724.1c-22.2 0-46-5.6-69-20-43.7-27.5-83.3-6.9-94.3 0-32.2 20.2-88.3 32.4-139.9 0-34-21.3-67.4-2.2-71 0.1-7.7 4.7-19 3.8-25.2-2-6.2-5.8-5.1-14.4 2.5-19.2 20.1-12.6 70.4-28.9 116.5 0 43.8 27.4 83.3 6.9 94.4 0 32.3-20.2 88.3-32.4 139.9 0 43.8 27.4 83.3 6.9 94.4 0 7.6-4.8 19-3.9 25.2 1.9 6.3 5.8 5.2 14.5-2.5 19.3-17.9 11.1-43.2 19.9-71 19.9zM413.5 599.3c-23.7 0-49-6.6-73.5-23.6-37.3-26-74-1.1-75.5 0-8.2 5.7-20.2 4.7-26.9-2.2-6.7-6.9-5.5-17.1 2.6-22.7 21.4-14.9 75-34.1 124.1 0 46.6 32.4 88.7 8.2 100.5 0 34.4-23.9 94.1-38.2 149.1 0 46.6 32.4 88.7 8.2 100.5 0 8.2-5.7 20.2-4.7 26.9 2.2 6.7 6.9 5.5 17.1-2.6 22.7-34.4 23.9-94.1 38.2-149.1 0-46.6-32.4-88.7-8.2-100.5 0-19.1 13.3-46 23.6-75.6 23.6z" p-id="1921"></path><path d="M814.2 253.5c-4.7 0-9.4 0.3-13.9 0.9-6.2-60-57.1-106.8-118.9-106.8s-112.7 46.8-118.9 106.8c-4.6-0.5-9.2-0.9-13.9-0.9-66 0-119.6 53.3-119.6 119.2s53.5 119.2 119.6 119.2h265.7c66 0 119.6-53.3 119.6-119.2s-53.7-119.2-119.7-119.2z" fill="#BFDFF7" p-id="1922"></path><path d="M730.6 351.2c-7.9 0-15.6 0.6-23.2 1.5-10.3-99.9-95.1-177.9-198.1-177.9s-187.7 77.9-198.1 177.9c-7.6-0.9-15.3-1.5-23.2-1.5-110 0-199.2 88.9-199.2 198.5 0 84.8 53.5 157.1 128.6 185.4 11.7 4.4 24.3-4.6 24.3-17.1v-2c0-7.7-5-14.3-12.2-17.1-59.8-23.4-102.3-81.4-102.3-149.2 0-88.4 72.1-160.2 160.8-160.2 5.7 0 11.8 0.4 18.8 1.2l19.8 2.3c1.9 0.3 3.9 0.7 5.8 1 36.4 9.3 68.8 29.5 92.9 57.9 5.9 7 16.3 7.9 23.7 2.7l1.7-1.2c8.9-6.2 10.2-18.7 3.2-26.9-27.5-32.1-63.9-55.4-104.8-67.3l0.3-2.5c8.5-81.8 77.2-143.6 159.9-143.6s151.5 61.7 159.9 143.6l0.1 0.8c2.1 20.7 20.8 35.7 41.5 33.3l1-0.1c7-0.8 13.1-1.2 18.8-1.2 88.7 0 160.8 71.9 160.8 160.2 0 36.4-12.6 69.8-33.2 96.7-2.6 3.4-4.1 7.4-4.1 11.7 0 18.6 23.6 26.5 34.9 11.8 25.6-33.3 40.8-74.9 40.8-120.1 0-109.7-89.2-198.6-199.2-198.6z" p-id="1923"></path></svg>