<?xml version="1.0" standalone="no"?><!DOCTYPE svg PUBLIC "-//W3C//DTD SVG 1.1//EN" "http://www.w3.org/Graphics/SVG/1.1/DTD/svg11.dtd"><svg t="1609151924291" class="icon" viewBox="0 0 1024 1024" version="1.1" xmlns="http://www.w3.org/2000/svg" p-id="1241" xmlns:xlink="http://www.w3.org/1999/xlink" width="128" height="128"><defs><style type="text/css"></style></defs><path d="M912 484.8C912 392.7 780.9 318 619.2 318s-292.8 74.6-292.8 166.7c0 71.9 80.1 133 192.2 156.4-41.3 17.5-68.1 45.4-68.1 77 0 53.1 75.6 96.1 168.8 96.1s168.8-43 168.8-96.1c0-31.6-26.8-59.5-68.1-77 6.7-1.4 13.4-2.8 19.9-4.4C841.4 610.6 912 552.4 912 484.8z" fill="#BFDFF7" p-id="1242"></path><path d="M499 546.3c221.4 0 388.4-81.5 388.4-189.7S720.4 167 499 167s-388.4 81.5-388.4 189.7c0 77.2 85.3 140.6 214.5 170.7-67.5 25.5-109.7 66.2-109.7 113.8 0 57.2 60.8 104.4 153.3 127.3-25.8 15.2-42.3 36-42.3 62.4 0 55 71.9 86.1 149.5 91.3 12.5 0.8 23.1-10 23.1-23.7 0-12.4-8.8-22.9-20.1-23.6-72.3-4.4-105.1-30.6-109.4-44-8.3-25.7 65.7-55 129.5-47.4 31 0 61.2-2.3 90.1-6.9 12-1.9 19.9-14.7 17.7-27.8v-0.1c-2.1-12.6-13-20.8-24.5-18.9-26.6 4.2-54.5 6.3-83.2 6.3-137.6 0-240.4-50.1-240.4-94.8-0.1-44.9 102.7-95 240.3-95zM153.8 356.7c0-67.3 141.8-142.3 345.2-142.3s345.2 75 345.2 142.3S702.4 498.9 499 498.9 153.8 424 153.8 356.7z" p-id="1243"></path><path d="M143 566.2m-32.4 0a32.4 32.4 0 1 0 64.8 0 32.4 32.4 0 1 0-64.8 0Z" fill="#FF8B00" p-id="1244"></path><path d="M833.4 134.6m-32.4 0a32.4 32.4 0 1 0 64.8 0 32.4 32.4 0 1 0-64.8 0Z" fill="#FF8B00" p-id="1245"></path><path d="M747.1 630.9m-32.4 0a32.4 32.4 0 1 0 64.8 0 32.4 32.4 0 1 0-64.8 0Z" fill="#FF8B00" p-id="1246"></path></svg>