<?xml version="1.0" encoding="UTF-8"?>
<svg width="100%" height="100%" viewBox="0 0 293 292" version="1.1" xmlns="http://www.w3.org/2000/svg"
    xmlns:xlink="http://www.w3.org/1999/xlink">
    <style type="text/css">
    <![CDATA[
     .icon-path {
      animation: icon-path-animation 8s ease-in infinite;
    }

    .icon-path-circle {
      animation: icon-path-circle-animation 8s linear infinite;
    }

    @keyframes icon-path-circle-animation {
      0% {
        transform: translate3d(0, 0, 0)
      }

      50% {
        transform: translate3d(3%, 3%, 0)
      }

      100% {
        transform: translate3d(0%, 0%, 0)
      }
    }

    @keyframes icon-path-animation {
      0% {
        stroke-dasharray: 4917;
        stroke-dashoffset: 4917;
      }

      40% {
        stroke-dasharray: 4917;
        stroke-dashoffset: 0;
      }

      60% {
        stroke-dasharray: 4917;
        stroke-dashoffset: 0;
      }

      100% {
        stroke-dasharray: 4917;
        stroke-dashoffset: 0;
      }
    }
    ]]>
    </style>
    <defs>
      <linearGradient x1="50%" y1="0%" x2="50%" y2="100%" id="linearGradient-1">
        <stop stop-color="#59D0FC" offset="0%"></stop>
        <stop stop-color="#4B79FF" offset="100%"></stop>
      </linearGradient>
      <linearGradient x1="50%" y1="0%" x2="50%" y2="100%" id="linearGradient-2">
        <stop stop-color="#59D0FC" stop-opacity="0" offset="0%"></stop>
        <stop stop-color="#4B79FF" offset="100%"></stop>
      </linearGradient>
      <linearGradient x1="9.75693603%" y1="40.5684097%" x2="50%" y2="77.7316389%" id="linearGradient-3">
        <stop stop-color="#59D0FC" offset="0%"></stop>
        <stop stop-color="#4B79FF" offset="100%"></stop>
      </linearGradient>
      <linearGradient x1="50%" y1="0%" x2="50%" y2="100%" id="linearGradient-4">
        <stop stop-color="#59D0FC" offset="0%"></stop>
        <stop stop-color="#4B79FF" offset="100%"></stop>
      </linearGradient>
      <linearGradient x1="50%" y1="0%" x2="50%" y2="100%" id="linearGradient-5">
        <stop stop-color="#59D0FC" offset="0%"></stop>
        <stop stop-color="#4B79FF" offset="100%"></stop>
      </linearGradient>
      <linearGradient x1="50%" y1="0%" x2="50%" y2="100%" id="linearGradient-6">
        <stop stop-color="#59D0FC" offset="0%"></stop>
        <stop stop-color="#4B79FF" offset="100%"></stop>
      </linearGradient>
      <linearGradient x1="50%" y1="0%" x2="50%" y2="100%" id="linearGradient-7">
        <stop stop-color="#59D0FC" offset="0%"></stop>
        <stop stop-color="#4B79FF" offset="100%"></stop>
      </linearGradient>
      <linearGradient x1="50%" y1="0%" x2="50%" y2="100%" id="linearGradient-8">
        <stop stop-color="#59D0FC" offset="0%"></stop>
        <stop stop-color="#4B79FF" offset="100%"></stop>
      </linearGradient>
      <linearGradient x1="50%" y1="0%" x2="50%" y2="100%" id="linearGradient-9">
        <stop stop-color="#59D0FC" offset="0%"></stop>
        <stop stop-color="#4B79FF" offset="100%"></stop>
      </linearGradient>
      <linearGradient x1="50%" y1="0%" x2="50%" y2="100%" id="linearGradient-10">
        <stop stop-color="#4B79FF" offset="0%"></stop>
        <stop stop-color="#59D0FC" stop-opacity="0" offset="100%"></stop>
      </linearGradient>
    </defs>
    <g id="cbz" stroke="none" stroke-width="1" fill="none" fill-rule="evenodd">
      <g id="画板" transform="translate(-392.000000, -1833.000000)">
        <g id="营销彩信" transform="translate(393.000000, 1833.000000)">
         <path
            d="M140.011571,222.607377 L186.556907,172.189367 L245.239314,231.966381 C230.44778,238.142402 218.23913,242.29256 208.613363,244.416854 C198.987596,246.541149 183.117506,248.587641 161.003094,250.556331 L140.011571,222.607377 Z"
            id="路径-43" stroke="url(#linearGradient-4)" stroke-width="2" fill="url(#linearGradient-3)"></path>
          <path
            d="M67.1755935,234.346662 L117.784853,194.630314 L162.309397,250.556331 C138.711977,250.754538 121.342701,249.904483 110.201568,248.006166 C99.0604354,246.10785 84.7184438,241.554682 67.1755935,234.346662 Z"
            id="路径-42" stroke="url(#linearGradient-5)" stroke-width="2" fill="url(#linearGradient-5)"></path>
              <circle id="椭圆形" stroke="url(#linearGradient-8)" stroke-width="2" fill="url(#linearGradient-8)"
            cx="141.309397" cy="176.465856" r="11.5"></circle>
          <ellipse  id="椭圆形" fill="url(#linearGradient-1)" opacity="0.189778646" cx="149.5" cy="235.375227" rx="116.5"
            ry="55.5"></ellipse>
          <path class="icon-path"
            d="M33,149.875227 C33,206.875227 33,235.375227 33,235.375227 C30.1403057,256.670683 73.011243,294.96062 157.364221,291.022513 C241.717198,287.084405 265.274923,250.556331 265.274923,244.030327 C265.274923,231.535341 265.274923,200.150308 265.274923,149.875227 L265.274923,5 L33,5 L33,149.875227 Z"
            id="路径-40复制" fill-opacity="0.56" fill="url(#linearGradient-2)" opacity="0.447846912"></path>
        
          <path class="icon-path"
            d="M33,109.099018 L33,206.253788 C58.5603926,238.259534 100.015133,252.923706 157.364221,250.246304 C243.387852,246.2302 265.274923,221.996597 265.274923,203.254118 C265.274923,190.759132 265.274923,159.374099 265.274923,109.099018 C255.707477,136.166856 219.737243,150.836321 157.364221,153.107415 C94.9911981,155.378509 53.5364579,140.709043 33,109.099018 Z"
            id="路径-40" stroke="url(#linearGradient-6)" stroke-width="2" fill-opacity="0.2"
            fill="url(#linearGradient-6)"></path>
          <path class="icon-path"
            d="M33,109.099018 C44.2985591,91.9480248 57.9185042,80.2067613 73.8598354,73.8752272 C73.8598354,73.8752272 73.8598354,106.188683 73.8598354,170.815594 C49.8055644,179.693506 36.1856193,191.506237 33,206.253788"
            id="路径-41" stroke="url(#linearGradient-7)" stroke-width="2" fill-opacity="0.17"
            fill="url(#linearGradient-7)" opacity="0.330194382" stroke-dasharray="6"></path>
          <path class="icon-path"
            d="M224.809397,109.099018 C236.107956,91.9480248 249.727901,80.2067613 265.669232,73.8752272 C265.669232,73.8752272 265.669232,106.188683 265.669232,170.815594 C241.614961,179.693506 227.995016,191.506237 224.809397,206.253788"
            id="路径-41复制" stroke="url(#linearGradient-7)" stroke-width="2" fill-opacity="0.17"
            fill="url(#linearGradient-7)" opacity="0.330194382" stroke-dasharray="6"
            transform="translate(245.239314, 140.064508) scale(-1, 1) translate(-245.239314, -140.064508) "></path>
        
          <g id="图片" transform="translate(97.000000, 30.875227)" fill-rule="nonzero">
            <g id="编组">
              <path class="icon-path-circle"
                d="M87.8948352,46.8797321 L87.8948353,46.8797354 C87.8825693,46.4405421 87.8369049,46.0029387 87.7582418,45.5707622 L87.7582416,45.5707609 C87.6235919,44.8540506 87.4145327,44.1535541 87.1345053,43.4807832 C86.9926742,43.1361036 86.8355314,42.7987218 86.6630768,42.4686404 C86.5156042,42.1851917 86.3572526,41.9078256 86.1904394,41.6353256 L86.1904394,41.6353256 C85.8688417,41.1122557 85.5088274,40.6141221 85.1134064,40.1450912 L85.1134064,40.1450912 C84.7736829,39.7381027 84.4039535,39.3574701 84.0073624,39.0064304 L84.0073623,39.0064304 C83.6007032,38.6558336 83.1656363,38.3400621 82.706703,38.0624125 C82.5326371,37.9545479 82.3561536,37.8487105 82.1772525,37.7449014 L81.4374722,37.3154706 L78.5121975,35.6123456 L76.9794503,34.7218545 L75.6872525,33.971263 L72.9843953,32.3958724 L71.6245052,31.6051357 L68.7306591,29.9263411 L67.0939558,28.9750241 L65.7195601,28.1769884 C45.0879118,16.1796893 17.7934063,0.336977263 17.2107689,0.166664763 C16.5132964,-0.0377102371 15.7445052,-0.0766388085 15.0603294,0.200727263 C11.0858239,1.81018039 2.49736235,7.51808217 1.77208762,7.94264691 L1.78175795,7.94264691 C0.837692018,8.49007994 0.249010699,9.65550405 0.244175534,11.3111849 L0.10150834,61.8903478 C0.0918678419,65.2126581 2.4345052,69.2965085 5.30780191,70.965571 L69.5441755,108.284689 C71.0648349,109.167881 72.4452744,109.204377 73.4002195,108.551107 C73.3530766,108.582736 73.3059338,108.614366 73.2563733,108.642346 C77.4690107,106.178897 87.1187909,100.232558 87.3085711,99.8457049 C87.7582415,98.9369661 87.7582415,97.943071 87.7582415,96.956475 C87.7582415,89.3491874 87.7791938,81.7423378 87.8210986,74.1358165 L87.8356041,70.554388 L87.8501096,66.9425465 C87.8549448,65.7495475 87.859377,64.5569549 87.8634063,63.3647674 C87.8738825,61.2666756 87.8791206,59.1685959 87.8791206,57.070504 C87.8839558,55.0624345 87.8871792,53.0547786 87.8887909,51.0475241 L87.8887909,48.5341982 C87.8960437,47.9818991 87.9105492,47.4296 87.8948349,46.879734 L87.8948352,46.8797321 Z"
                id="路径" fill="#DEE8FF"></path>
              <path class="icon-path-circle"
                d="M17.2107692,0.166662946 C16.5132967,-0.0377120536 15.7445055,-0.076640625 15.0603297,0.200725446 C11.0858242,1.81017857 2.49736264,7.51808036 1.77208791,7.94264509 C2.64846154,7.43049107 3.70615385,7.53511161 4.62241758,7.88546875 C4.97175824,8.01928571 40.1802198,28.2767411 59.5752747,39.7302567 L65.7195604,28.1733371 C45.0879121,16.1796875 17.7934066,0.336975446 17.2107692,0.166662946 Z"
                id="路径" fill="#4197D8"></path>
              <path class="icon-path-circle"
                d="M64.929011,27.7134933 L59.1268132,39.4674888 C59.5921978,39.7424219 60.5773626,40.3044531 61.0221978,40.5684375 L67.0987912,28.9713728 L64.929011,27.7134933 Z"
                id="路径" fill="#4197D8"></path>
              <path class="icon-path-circle"
                d="M66.5004396,28.6270982 L60.3875824,40.2034821 C60.946044,40.534375 62.3156044,41.3178125 62.8426374,41.6304576 L68.7306593,29.9263393 L66.5004396,28.6270982 Z"
                id="路径" fill="#4197D8"></path>
              <path class="icon-path-circle"
                d="M68.0017582,29.4993415 L62.1487912,41.2253571 C63.1726374,41.8336161 64.576044,42.6243527 65.4681319,43.1535379 L71.6245055,31.6039174 L68.0017582,29.4993415 Z"
                id="路径" fill="#4197D8"></path>
              <path class="icon-path-circle"
                d="M70.8593407,31.1598884 L64.9894505,42.8761719 C65.4596703,43.155971 66.161978,43.5513393 66.5910989,43.806808 L72.9843956,32.3958705 L70.8593407,31.1598884 Z"
                id="路径" fill="#4197D8"></path>
              <path class="icon-path-circle"
                d="M72.3425275,32.0223996 L66.33,43.6547433 C67.3514286,44.2630022 68.4840659,44.8895089 69.2456044,45.3493527 L75.6872527,33.9663951 L72.3425275,32.0223996 Z"
                id="路径" fill="#4197D8"></path>
              <path class="icon-path-circle"
                d="M75.0103297,33.5758929 L69.1428571,45.2909598 C69.6263736,45.5829241 70.1352747,45.8554241 70.5317582,46.1717188 L76.977033,34.7182031 L75.0103297,33.5758929 Z"
                id="路径" fill="#4197D8"></path>
              <path class="icon-path-circle"
                d="M76.2457143,34.2912054 L70.4024176,46.0731808 C71.2292308,46.6206138 72.0318681,47.5974777 72.2156044,47.8225335 L78.5013187,35.6086942 L76.2457143,34.2912054 Z"
                id="路径" fill="#4197D8"></path>
              <path class="icon-path-circle"
                d="M77.666044,35.117221 L71.8179121,47.3663393 L71.8179121,47.3663393 C71.8298795,47.3752366 71.8411911,47.3849942 71.8517582,47.3955357 L71.8517587,47.3955363 C72.5587009,48.1803825 73.1638895,49.0522754 73.6528576,49.9903688 C73.743517,50.1655474 74.0940664,50.9550675 74.1762642,51.1338956 L81.4362642,37.3093867 L77.666044,35.117221 Z"
                id="路径" fill="#4197D8"></path>
              <path class="icon-path-circle"
                d="M82.176044,37.738817 L80.6046154,36.8276451 L73.9127471,50.5219866 L73.9127471,50.5219863 C74.2694783,51.3068289 74.5460981,52.1260989 74.7383515,52.9671872 L82.7067032,38.0563278 C82.5286083,37.9484632 82.3517211,37.8426258 82.1760438,37.7388167 L82.176044,37.738817 Z"
                id="路径" fill="#4197D8"></path>
              <path class="icon-path-circle"
                d="M84.010989,39.000346 L84.0109897,39.0003466 C83.3938172,38.502556 82.738193,38.0550818 82.0503304,37.6621769 L74.5824183,52.3236501 C74.653737,52.5803354 74.7153854,52.8406702 74.7661546,53.1022216 C74.989781,54.2530475 74.9245062,55.4294202 74.9208799,56.5948443 L74.9208799,60.0327238 L85.1134076,40.1450899 L85.1134076,40.1450902 C84.7750778,39.7361382 84.4065585,39.3534704 84.01099,39.0003469 L84.010989,39.000346 Z"
                id="路径" fill="#4197D8"></path>
              <path class="icon-path-circle"
                d="M84.4038462,39.3689509 L74.9172527,58.0461496 C74.9172527,59.1166853 74.9112088,62.2747656 74.9075824,63.459654 L86.1868132,41.6341071 C85.8640659,41.1110045 84.9647253,39.8689397 84.4038462,39.3689509 Z"
                id="路径" fill="#4197D8"></path>
              <path class="icon-path-circle"
                d="M86.657033,42.4674219 C86.5095604,42.1839732 85.9921978,41.2679353 85.7153846,40.9394754 L74.9075824,61.4341518 C74.9075824,62.5655134 74.9015385,65.5995089 74.8979121,66.8123772 L87.1284615,43.4807813 C86.9842129,43.1352902 86.82707,42.7975033 86.657033,42.4674219 L86.657033,42.4674219 Z"
                id="路径" fill="#4197D8"></path>
              <path class="icon-path-circle"
                d="M86.783956,42.7192411 L74.8979121,64.9620536 C74.8979121,66.0058259 74.8979121,68.8731585 74.8894505,69.9607254 L87.7582418,45.5707589 C87.6204396,44.8542299 87.200989,43.4686161 86.783956,42.7192411 Z"
                id="路径" fill="#4197D8"></path>
              <path class="icon-path-circle"
                d="M87.8948352,48.5329799 C87.8948352,47.9818973 87.9105495,47.4308147 87.8948352,46.8797321 C87.8815385,46.4393527 87.773956,45.2422991 87.5430769,44.7021652 L74.8882418,68.160279 C74.8882418,70.034933 74.8773626,73.849933 74.8725275,75.7963616 L87.8924176,52.3893415 C87.8924176,51.5511607 87.8948352,49.3711607 87.8948352,48.5329799 L87.8948352,48.5329799 Z"
                id="路径" fill="#4197D8"></path>
              <path class="icon-path-circle"
                d="M87.8924176,51.0463058 L74.8725275,73.9168415 C74.8725275,75.9228795 74.8616484,79.7901897 74.8556044,81.7937946 L87.8791209,58.9585379 C87.8875824,56.9512835 87.89,53.0547768 87.8924176,51.0463058 L87.8924176,51.0463058 Z"
                id="路径" fill="#4197D8"></path>
              <path class="icon-path-circle"
                d="M87.8791209,57.0705022 L74.8556044,79.9471205 C74.8556044,82.0845424 74.8435165,86.0151116 74.8374725,88.0539955 L87.8634066,65.1530469 C87.8706593,63.0557701 87.8791209,59.1665625 87.8791209,57.0705022 L87.8791209,57.0705022 Z"
                id="路径" fill="#4197D8"></path>
              <path class="icon-path-circle"
                d="M87.8634066,63.3611161 L74.8374725,86.2316518 C74.8374725,87.4481696 74.8302198,90.3495647 74.8278022,91.5064732 L87.8501099,68.8026004 C87.8549451,67.6091964 87.8597802,64.5533036 87.8634066,63.3611161 Z"
                id="路径" fill="#4197D8"></path>
              <path class="icon-path-circle"
                d="M87.8501099,66.9388951 L74.8241758,89.8082143 C74.8241758,91.0563616 74.8169231,93.8385379 74.8145055,94.9881473 L87.8356044,72.0871987 C87.8404396,70.882846 87.8452747,68.1420313 87.8501099,66.9388951 Z"
                id="路径" fill="#4197D8"></path>
              <path class="icon-path-circle"
                d="M87.8356044,70.5495201 L74.8169231,93.4115402 C74.8169231,94.6767188 74.8096703,97.587846 74.8072527,98.6985268 L87.8210989,76.1540179 C87.8259341,74.9581808 87.8307692,71.7441406 87.8356044,70.5495201 L87.8356044,70.5495201 Z"
                id="路径" fill="#4197D8"></path>
              <path class="icon-path-circle"
                d="M87.3085714,99.8457031 C87.7582418,98.9369643 87.7582418,97.9430692 87.7582418,96.9564732 C87.7582418,89.3491856 87.7791941,81.7423359 87.8210989,74.1358147 L74.8072527,96.9844531 C74.793956,101.759286 74.7842857,104.941696 74.7842857,105.118092 L74.7842859,105.118101 C74.792752,105.612085 74.7432513,106.105349 74.6368109,106.587654 C74.4385692,107.412453 74.0034043,108.205623 73.2563714,108.642353 C77.4690087,106.178904 87.1187889,100.232565 87.3085692,99.8457124 L87.3085714,99.8457031 Z"
                id="路径" fill="#4197D8"></path>
              <path class="icon-path-circle"
                d="M69.7206593,45.6194196 C72.593956,47.2884821 74.9365934,51.3723326 74.9269529,54.6946429 L74.7842857,105.273806 C74.7746154,108.596116 72.4174725,109.948884 69.5441758,108.278605 L5.3078022,70.9607031 C2.43450549,69.2916406 0.0918681319,65.2077902 0.10150863,61.8854799 L0.241758242,11.306317 C0.251428571,7.9840067 2.60857143,6.63245536 5.48186813,8.30151786 L69.7206593,45.6194196 Z"
                id="路径" fill="url(#linearGradient-9)"></path>
              <path class="icon-path-circle"
                d="M22.3445055,37.128125 C21.7055253,35.5753133 20.8728386,34.1106258 19.8664837,32.7693419 C19.7673628,32.637958 19.6682419,32.5053575 19.5642859,32.3764066 C19.5050551,32.302199 19.4434068,32.2279915 19.384176,32.1537839 C19.2399273,31.9786053 19.0924548,31.8058598 18.9417584,31.6355473 C18.5281361,31.1677519 18.0877928,30.7245939 17.6229679,30.308327 C17.4617961,30.1647779 17.297803,30.0248784 17.1309898,29.8886284 C16.9923814,29.7758977 16.8517591,29.6660056 16.7091217,29.558952 C16.444799,29.3610647 16.1732247,29.173721 15.8943964,28.9969208 C15.7735173,28.9178471 15.6441767,28.8412065 15.5172536,28.7669989 L15.3963745,28.6964409 C15.064584,28.5084578 14.7218808,28.3406829 14.3701165,28.1940208 C14.2250616,28.1344114 14.0775891,28.0796681 13.9276989,28.0273578 C13.7778088,27.9750476 13.620666,27.9251703 13.4659407,27.8813757 C13.3112154,27.837581 13.1589077,27.8047351 13.0041825,27.7743221 C12.5506613,27.6812093 12.0869472,27.648488 11.6249521,27.6770006 C11.5342927,27.6830832 11.4448422,27.6928154 11.3541828,27.7049805 C11.1913801,27.7258694 11.0299315,27.7563343 10.8706684,27.7962189 C10.786053,27.8181163 10.7014376,27.8400136 10.618031,27.866777 C10.3462803,27.9582754 10.0836342,28.0751653 9.83352682,28.2159164 C9.68242792,28.2986396 9.53253781,28.3862289 9.38143891,28.4738182 L9.33187847,28.5030146 L8.1726477,29.1818315 L8.09528506,29.2268427 L8.11462572,29.215894 C6.66407627,30.0540749 5.76110924,31.8508717 5.7538126,34.4104253 C5.739351,39.5392646 9.32220814,45.7848673 13.7572631,48.3614521 C16.0152851,49.6728583 18.0569334,49.7799119 19.5207796,48.8930704 L19.4712191,48.9246999 L19.8701202,48.6911284 L21.1236367,47.9612177 C22.2659444,47.2933494 22.9549554,46.1668539 23.2837466,44.9004588 C23.4859246,44.0719794 23.5697712,43.2187308 23.532758,42.3664505 C23.4795604,40.5708705 23.0286813,38.7813728 22.3445055,37.128125 Z"
                id="路径" fill="#90D6F4"></path>
              <path class="icon-path-circle"
                d="M9.33065934,28.5030134 L8.17142857,29.1818304 L8.09406552,29.2268418 L8.09406552,29.2268418 C8.53316014,28.9722757 9.01642882,28.8042381 9.51802156,28.731719 L9.53736222,28.3825784 L9.33065934,28.5030134 Z"
                id="路径" fill="#90D6F4"></path>
              <path class="icon-path-circle"
                d="M9.37901046,28.473817 L9.37901046,28.7548327 L9.37901046,28.7548327 C9.61916826,28.7164474 9.86133024,28.6920763 10.1042852,28.6818415 L10.0462632,28.1003459 C9.86252694,28.1891517 9.51802145,28.3874442 9.37901046,28.4738169 L9.37901046,28.473817 Z"
                id="路径" fill="#90D6F4"></path>
              <path class="icon-path-circle"
                d="M10.6156044,27.8679911 L10.6156045,27.867991 C10.3438537,27.9594895 10.0812075,28.0763793 9.8311001,28.2171305 L9.8311001,28.7037376 L9.8311001,28.7037376 C10.2318555,28.6852103 10.6334534,28.7014908 11.0314298,28.7523983 L11.0918693,27.7524206 L11.0918693,27.7524206 C10.9312993,27.7829304 10.7723468,27.8215016 10.6156053,27.8679899 L10.6156044,27.8679911 Z"
                id="路径" fill="#90D6F4"></path>
              <path class="icon-path-circle"
                d="M10.8682418,27.797433 L10.8682418,28.7280692 C11.029011,28.74875 11.388022,28.816875 11.5475824,28.849721 L11.5185714,27.6867299 L11.5185714,27.6867299 C11.2996242,27.7092821 11.0823815,27.7462623 10.8682418,27.7974326 L10.8682418,27.797433 Z"
                id="路径" fill="#90D6F4"></path>
              <path class="icon-path-circle"
                d="M11.3505495,27.7061942 L11.3505495,28.8083594 C11.4412088,28.8278237 11.8630769,28.9385268 11.9549451,28.9616406 L11.8256044,27.6684821 L11.8256043,27.6684821 C11.6667087,27.6727241 11.5081431,27.6853118 11.3505495,27.7061938 L11.3505495,27.7061942 Z"
                id="路径" fill="#90D6F4"></path>
              <path class="icon-path-circle"
                d="M11.6213187,27.6782143 L11.6213187,28.8704018 L11.6213187,28.8704019 C12.2407981,29.0471571 12.8422467,29.2825922 13.4175829,29.5735493 L13.2386818,27.8266296 L13.2386819,27.8266296 C12.7096847,27.6977615 12.1647519,27.6477565 11.6213187,27.6782145 L11.6213187,27.6782143 Z"
                id="路径" fill="#90D6F4"></path>
              <path class="icon-path-circle"
                d="M12.9993406,27.7767522 L12.9993406,29.3679576 C13.1089378,29.4190513 13.2169231,29.4725781 13.3232967,29.5285379 L13.7596703,29.7645424 L13.6859341,27.9519308 L13.685934,27.9519308 C13.4609176,27.8792046 13.2316074,27.8206977 12.9993406,27.7767522 L12.9993406,27.7767522 Z"
                id="路径" fill="#90D6F4"></path>
              <path class="icon-path-circle"
                d="M13.4623077,27.8838058 L13.4623077,29.6027455 C13.6182418,29.6866853 14.1102198,29.9786496 14.2613187,30.0698884 L14.1404396,28.1100781 C13.9869231,28.0456027 13.6279121,27.9263839 13.4623077,27.8838058 L13.4623077,27.8838058 Z"
                id="路径" fill="#90D6F4"></path>
              <path class="icon-path-circle"
                d="M13.9240659,28.0297879 L13.9240659,29.8642969 C14.073956,29.9531027 14.5949451,30.2998103 14.74,30.3946987 L14.6348352,28.3120201 C14.4849451,28.2329464 14.0727473,28.0808817 13.9240659,28.0297879 Z"
                id="路径" fill="#90D6F4"></path>
              <path class="icon-path-circle"
                d="M14.3652746,28.1952343 L14.3652746,30.1416629 C14.7182418,30.3740179 15.3806593,30.893471 15.7106593,31.1598884 L15.6586813,28.8485045 L15.6586812,28.8485044 C15.2427349,28.6015379 14.8106054,28.3832788 14.3652746,28.1952343 L14.3652746,28.1952343 Z"
                id="路径" fill="#90D6F4"></path>
              <path class="icon-path-circle"
                d="M15.5172527,28.7682143 L15.3963736,28.6976563 L15.3963736,30.8873884 C15.5668132,31.0248549 15.9910989,31.405625 16.1554945,31.5516071 L16.1675824,29.1684487 C16.0273626,29.0747768 15.6453846,28.8424219 15.5172527,28.7682143 Z"
                id="路径" fill="#90D6F4"></path>
              <path class="icon-path-circle"
                d="M15.8943956,28.9981362 L15.8943956,31.3180357 C16.176044,31.5674219 16.6728571,32.0722768 16.9351648,32.3423437 L16.8904396,29.6988504 C16.6245055,29.4871763 16.1736264,29.1745313 15.8943956,28.9981362 Z"
                id="路径" fill="#90D6F4"></path>
              <path class="icon-path-circle"
                d="M16.7091209,29.5613839 L16.7091209,32.0990402 C16.852967,32.2474554 17.1926374,32.6355246 17.3364835,32.7888058 L17.3473626,30.0711049 C17.1865934,29.9263393 16.8445055,29.6574888 16.7091209,29.5613839 L16.7091209,29.5613839 Z"
                id="路径" fill="#90D6F4"></path>
              <path class="icon-path-circle"
                d="M17.130989,29.8898438 L17.130989,32.5515848 C17.3002198,32.7401451 17.6942857,33.2145871 17.8562637,33.4104464 L17.8562637,30.52 C17.6894505,30.3618527 17.2978022,30.0260938 17.130989,29.8898438 Z"
                id="路径" fill="#90D6F4"></path>
              <path class="icon-path-circle"
                d="M17.622967,30.3095424 L17.622967,33.1257813 C18.0968132,33.7060603 18.7616484,34.678058 19.1653846,35.3069978 L19.1327473,31.8569531 L19.1327477,31.8569536 C18.6645997,31.3076021 18.1601966,30.790627 17.622967,30.3095424 L17.622967,30.3095424 Z"
                id="路径" fill="#90D6F4"></path>
              <path class="icon-path-circle"
                d="M18.9417582,31.6367634 L18.9417582,34.9444754 C19.0940659,35.187779 19.3962637,35.6902009 19.5389011,35.9335045 L19.4820879,32.2754353 C19.3406593,32.0929576 19.0928571,31.8058594 18.9417582,31.6367634 L18.9417582,31.6367634 Z"
                id="路径" fill="#90D6F4"></path>
              <path class="icon-path-circle"
                d="M19.5122228,32.3764063 C19.4701134,32.3021987 19.4262852,32.2279911 19.3841758,32.1537835 L19.3841758,35.6658705 C19.5036291,35.9517522 19.75027,36.5940737 19.8594108,36.8896875 L19.816442,32.9384375 C19.7451137,32.7973214 19.5852698,32.5053571 19.5122228,32.3764063 L19.5122228,32.3764063 Z M19.4391759,48.9365317 L19.72277,48.6927722 L19.72277,48.6534151 L19.72277,48.6534151 C19.632404,48.7565886 19.537681,48.8511524 19.4391759,48.9365317 L19.4391759,48.9365317 Z"
                id="形状" fill="#90D6F4"></path>
              <path class="icon-path-circle"
                d="M22.3445055,37.128125 L22.3445057,37.1281254 C21.7055253,35.5753133 20.8728386,34.1106258 19.8664837,32.7693419 L19.8664837,36.5405473 C20.1082419,37.0149892 20.3500002,37.4991633 20.5542859,37.9930696 C21.2795606,39.6961946 21.746154,41.5453017 21.8053848,43.4029245 C21.8634068,45.2118865 21.4729672,47.2836165 20.0405496,48.5122995 C19.9837364,48.5609602 19.9196705,48.6071879 19.8664837,48.6534156 L19.8664837,48.6911276 L21.1200002,47.9612169 C22.2623079,47.2933486 22.9513188,46.1668531 23.28011,44.900458 L23.2801105,44.9004562 C23.4836866,44.0730002 23.5691591,43.220591 23.5339566,42.3688825 C23.479561,40.5708691 23.0286819,38.7813714 22.3445061,37.1281236 L22.3445055,37.128125 Z"
                id="路径" fill="#90D6F4"></path>
              <path class="icon-path-circle"
                d="M13.8068132,29.7900893 C18.2406593,32.3666741 21.8247253,38.6134933 21.8102637,43.7411161 C21.7957143,48.8687388 18.1838462,50.9380357 13.7548352,48.3638839 C9.32582418,45.7897321 5.73571429,39.5368304 5.75017598,34.4104241 C5.76472527,29.2840179 9.37175824,27.2135045 13.8068132,29.7900893 Z"
                id="路径" fill="#B6E8FD"></path>
              <path class="icon-path-circle"
                d="M66,73.3316964 L66.0000001,73.3316974 C65.9396966,72.6226354 65.6107705,71.9640637 65.08132,71.4923224 L65.0813199,71.4923223 C64.8899006,71.315673 64.6756121,71.165899 64.444287,71.0470768 L64.4201111,71.0349116 C64.1565946,70.9010947 63.8894518,70.7737654 63.6186826,70.652925 C63.3616126,70.5385723 63.1009174,70.4319239 62.8365946,70.3329808 C62.5815397,70.2368759 62.325276,70.1492866 62.0653859,70.070213 L62.0653855,70.0702129 C61.6294168,69.9362974 61.1852586,69.8310503 60.7357152,69.755136 L60.6148361,69.7368882 C60.3585723,69.6979596 60.1015023,69.6699797 59.8436273,69.6529485 L59.843627,69.6529484 C58.8334402,69.5831581 57.8188292,69.6872429 56.8434072,69.9607275 C55.7869237,70.2587743 54.8053852,70.746598 53.8589017,71.2988971 L52.2197687,72.2611615 L52.3406479,72.1906035 C51.7362523,72.5385276 51.1499885,72.9205142 50.5661424,73.3025008 C50.3304281,73.4569986 50.0947138,73.6127128 49.8577907,73.7672106 L49.8577911,73.7672104 C49.2218073,74.1021287 48.5345636,74.3274644 47.8246043,74.4338622 L47.80889,74.4338622 L47.8088903,74.4338622 C47.0560225,74.5232686 46.2928364,74.4276785 45.5847144,74.1552796 L45.5847154,74.1552799 C45.1374143,73.9846402 44.7006635,73.7872115 44.2768033,73.5640523 L44.2768021,73.5640517 C43.6368016,73.2259923 43.0219318,72.8417868 42.4370219,72.4144423 C42.0872787,72.1605952 41.7463996,71.8949892 41.4143846,71.6176231 C40.5525164,70.8998776 39.7402087,70.1237392 38.9448241,69.3305695 C38.5435054,68.9303352 38.1446043,68.5264512 37.746912,68.1237838 C36.9563626,67.3233151 36.1621868,66.5289289 35.3522966,65.7503575 C34.9038351,65.3184936 34.4505384,64.8914959 33.9887802,64.4730137 C33.7252637,64.2353876 33.4589271,64.0005997 33.1897692,63.7686499 L33.1897684,63.7686492 C32.1542369,62.8696498 31.0742146,62.0239071 29.9538343,61.2346425 C29.7620391,61.1000141 29.5694387,60.9670086 29.3760321,60.8356247 L29.3760318,60.8356244 C28.1747556,59.9957782 26.9082845,59.2545526 25.5888889,58.6191289 L25.5888902,58.6191295 C24.046255,57.8936663 22.4055023,57.4017357 20.7198792,57.159308 L20.7198803,57.1593082 C19.0452572,56.9276832 17.3445001,56.9687577 15.6828473,57.2809596 L15.6828458,57.2809599 C14.0587622,57.5835249 12.488337,58.1271563 11.0229556,58.8940626 C10.3073513,59.2687501 9.61713147,59.6969644 8.91965894,60.1105804 L8.91965877,60.1105805 C8.55344097,60.3120712 8.19907899,60.5346586 7.85834009,60.7772323 C7.22855987,61.229777 7.47757086,62.1932591 7.7737247,62.7735381 L7.77372474,62.7735382 C7.99742726,63.24299 8.35187386,63.6368948 8.79394452,63.9073328 L8.79394441,63.9073328 C9.01663639,64.0502335 9.28519595,64.1020255 9.54460375,64.0520984 L9.54460369,64.0520984 C9.6507335,64.0174309 9.74981534,63.9638651 9.83713116,63.8939511 L9.76823006,63.9438283 L9.76823008,63.9438283 C9.74772814,63.9592806 9.72633543,63.9734982 9.70416415,63.9864064 L11.4339444,62.9742636 L11.4339444,62.9742635 C11.4561216,62.9613652 11.4775148,62.9471472 11.4980101,62.9316857 L11.5354826,62.9049223 L11.5354829,62.9049221 C12.5288349,62.4305459 13.5693829,62.0635382 14.6396587,61.8100573 L14.6396582,61.8100574 C16.8552517,61.2706278 19.1667022,61.2706278 21.3822956,61.8100572 C23.6536143,62.3733049 25.6843835,63.5302134 27.6027352,64.8513518 L27.6027347,64.8513515 C29.4557029,66.1437071 31.2002062,67.5868866 32.8186688,69.1663403 C34.5689985,70.8487845 36.2141633,72.6419319 38.0068007,74.2757153 C39.7196578,75.8425903 41.5957018,77.2501015 43.7352622,78.1685725 C44.7675699,78.6126015 45.8482292,78.9069988 46.9796578,78.851039 C48.1110864,78.7950792 49.2086688,78.3948448 50.2131743,77.859577 C50.4077897,77.7561729 50.5999875,77.6466863 50.7909765,77.5347667 L50.7438336,77.5627466 L52.4736139,76.5506037 C52.9571303,76.2671551 53.4333941,75.9593761 53.9072402,75.649164 C54.2275699,75.4387064 54.5478996,75.2270323 54.8742732,75.0202243 L54.8742737,75.020224 C55.3601534,74.7680107 55.8654547,74.555648 56.3852627,74.3852017 L56.3852628,74.3852017 C57.4336643,74.0439562 58.5442968,73.9413247 59.6369111,74.0847218 L59.6369111,74.0847218 C60.6546383,74.2368266 61.6422232,74.5492406 62.5633946,75.0104906 C62.9332847,75.1893187 63.3636144,75.511696 63.7963616,75.3535487 L63.7963616,75.3535487 C63.8386224,75.3385121 63.8791495,75.3189348 63.9172406,75.2951559 L63.9015263,75.3048881 L64.4273505,74.9971091 L64.7972406,74.7805689 L65.0873505,74.6102564 L65.3943835,74.4302117 L65.3943836,74.4302117 C65.5040331,74.3741477 65.6091205,74.3094721 65.7086693,74.2367854 C65.9661395,74.0226782 66.0205374,73.6516403 65.9999879,73.3316961 L66,73.3316964 Z"
                id="路径" fill="#DEE8FF"></path>
              <path class="icon-path-circle"
                d="M25.5913187,58.6130469 L25.5913199,58.6130475 C24.0486848,57.8875843 22.407932,57.3956537 20.722309,57.153226 L20.72231,57.1532262 C19.047687,56.9216012 17.3469298,56.9626757 15.6852771,57.2748776 L15.6852755,57.2748779 C14.061192,57.5774429 12.4907667,58.1210743 11.0253854,58.8879806 C10.3001107,59.2663176 9.60989092,59.696965 8.90758322,60.1044984 L8.68637314,60.2334493 L8.68637314,60.2334501 C10.1094105,59.4064637 11.647549,58.7987497 13.24956,58.4305706 L13.24956,58.4305706 C14.9055194,58.0449381 16.6119337,57.9270818 18.3047249,58.08143 L18.3047258,58.0814301 C20.0265522,58.2485662 21.7122599,58.6831502 23.3018687,59.3697225 C24.8732973,60.0436734 26.3443962,60.9511957 27.7623082,61.9122448 C28.3123082,62.2857158 29.3337368,63.0363073 29.8680225,63.4535729 L29.8982423,61.1823341 C28.6652753,60.3173899 26.9149456,59.2310394 25.5913192,58.6130484 L25.5913187,58.6130469 Z"
                id="路径" fill="#90D6F4"></path>
              <path class="icon-path-circle"
                d="M29.9562637,61.2285603 C29.7644685,61.0939319 29.5718681,60.9609263 29.3784615,60.8295424 L29.3784615,63.081317 C30.2403297,63.7370201 31.0707692,64.4280022 31.8867033,65.1493973 C32.3291209,65.5411161 33.2465934,66.4048438 33.6757143,66.8099442 L33.6297802,64.1494196 L33.6297798,64.1494192 C32.4579534,63.1105118 31.2316952,62.1354983 29.9562633,61.2285599 L29.9562637,61.2285603 Z"
                id="路径" fill="#90D6F4"></path>
              <path class="icon-path-circle"
                d="M33.9912088,64.4681473 C33.7276923,64.2305212 33.4613557,63.9957333 33.1921978,63.7637835 L33.1921978,66.3440179 C33.9259341,67.0362165 34.9908791,68.092154 35.7016484,68.808683 L35.8467033,66.2223661 C35.3486813,65.7284598 34.4505495,64.8854129 33.9912088,64.4681473 L33.9912088,64.4681473 Z"
                id="路径" fill="#90D6F4"></path>
              <path class="icon-path-circle"
                d="M37.7505495,68.125 C36.96,67.3245313 36.1658242,66.5301451 35.3559341,65.7515737 L35.3559341,68.4668415 L35.6943956,68.80625 C36.7605495,69.8853013 38.1192308,71.3049777 39.3207692,72.3171205 L39.4912088,69.8670536 C39.0886813,69.4631696 38.1482418,68.5215848 37.7505495,68.125 L37.7505495,68.125 Z"
                id="路径" fill="#90D6F4"></path>
              <path class="icon-path-circle"
                d="M41.418022,71.6127567 C40.5561538,70.8950112 39.7438462,70.1188728 38.9484615,69.3257031 L38.9484615,71.9825781 C39.1096333,72.1236942 39.2687912,72.2631886 39.4259341,72.4010603 C40.3603297,73.2039621 41.6730769,74.1540625 42.8105495,74.6966295 L43.0994509,72.8694196 L43.0994509,72.8694199 C42.5173321,72.4806938 41.9560735,72.0612214 41.4180344,71.6127691 L41.418022,71.6127567 Z"
                id="路径" fill="#90D6F4"></path>
              <path class="icon-path-circle"
                d="M42.4406539,72.4095744 L42.4406539,74.5068527 L42.4406539,74.506852 C42.8226772,74.7121151 43.2148333,74.8976718 43.6156032,75.0628007 L43.6156031,75.0628007 C43.9980296,75.2183203 44.3948443,75.3352739 44.8002161,75.4119413 L44.8606556,73.8450663 L44.8606556,73.8450654 C44.0113076,73.4434966 43.2011165,72.9629087 42.4406539,72.4095744 L42.4406539,72.4095744 Z"
                id="路径" fill="#90D6F4"></path>
              <path class="icon-path-circle"
                d="M45.5895604,74.1504129 L45.5895614,74.1504133 C45.1422603,73.9797736 44.7055095,73.7823449 44.2816493,73.5591856 L44.2816493,75.2927236 L44.2816493,75.2927236 C44.7836822,75.4415548 45.3078781,75.5000328 45.830111,75.4654691 L45.8301108,75.4654692 C46.610313,75.3827507 47.3691801,75.1585381 48.0700009,74.8036834 L48.1667047,74.3718196 L48.1667047,74.3718195 C47.3036617,74.5357842 46.4125069,74.4592229 45.5895619,74.1504133 L45.5895604,74.1504129 Z"
                id="路径" fill="#90D6F4"></path>
              <path class="icon-path-circle"
                d="M47.8306593,74.427779 L47.8149451,74.427779 L47.8149451,74.9229018 C47.9060073,74.8815402 47.9962637,74.8409896 48.0857143,74.80125 C48.8774725,74.4119643 49.6317582,73.9338728 50.3932967,73.4886272 L50.6217582,73.3548103 C50.4436634,73.4594308 50.2631498,73.5595904 50.0802198,73.6552902 C49.3767033,74.0202455 48.6224176,74.3292411 47.8306593,74.427779 L47.8306593,74.427779 Z"
                id="路径" fill="#90D6F4"></path>
              <path class="icon-path-circle"
                d="M58.4631868,70.6942857 L58.4631865,70.6942857 C59.0296164,70.7675885 59.5905391,70.8789458 60.1421975,71.0276116 L60.0998898,69.6748437 L60.0998902,69.6748437 C59.0036786,69.5709322 57.8978232,69.6682094 56.8361539,69.961942 C55.7796704,70.2599888 54.798132,70.7478125 53.8516484,71.3001116 L52.2197803,72.2611607 L52.2197803,72.2611607 C53.1531125,71.6926598 54.1570499,71.2508838 55.2054949,70.9473212 L55.2054952,70.9473211 C56.2664972,70.6609407 57.3710809,70.5751433 58.4631875,70.6942854 L58.4631868,70.6942857 Z"
                id="路径" fill="#90D6F4"></path>
              <path class="icon-path-circle"
                d="M60.852967,71.2514509 L60.8432967,69.7758147 C60.5846154,69.7259375 60.0950549,69.6711942 59.8375824,69.6541629 L59.8375824,70.9461049 C60.0974725,71.0105804 60.5954945,71.157779 60.852967,71.2514509 L60.852967,71.2514509 Z"
                id="路径" fill="#90D6F4"></path>
              <path class="icon-path-circle"
                d="M61.5673626,71.5239509 C61.7353846,71.5932924 62.1487912,71.7830692 62.3143956,71.8584933 L62.4074725,70.1796987 L62.4074725,70.1796983 C61.8608475,69.9976196 61.3016921,69.856124 60.7345043,69.7563501 L60.6136252,69.7381023 L60.6136252,71.1662943 C60.9343574,71.2741589 61.2522695,71.393378 61.5673615,71.5239505 L61.5673626,71.5239509 Z"
                id="路径" fill="#90D6F4"></path>
              <path class="icon-path-circle"
                d="M62.3458242,71.874308 L62.3458241,71.874308 C62.5710303,71.9761405 62.7905504,72.0902569 63.0034065,72.2161495 L63.0783515,70.4266517 C62.8196702,70.3208147 62.3276922,70.1505022 62.0678021,70.0714285 L62.0678021,71.7429241 C62.1596702,71.7867187 62.2527471,71.8292968 62.3458241,71.874308 L62.3458242,71.874308 Z"
                id="路径" fill="#90D6F4"></path>
              <path class="icon-path-circle"
                d="M63.0396703,72.2392634 L63.0396704,72.2392634 C63.3253755,72.4476384 63.5749244,72.7020706 63.7782418,72.992288 L63.9305495,70.7940402 C63.6597803,70.6626563 63.1025275,70.4290849 62.8426374,70.33298 L62.8426374,72.1176117 C62.9067034,72.1565402 62.978022,72.1954688 63.0396704,72.2392634 L63.0396703,72.2392634 Z"
                id="路径" fill="#90D6F4"></path>
              <path class="icon-path-circle"
                d="M63.7987912,73.0251339 L63.7987911,73.0251338 C64.0444151,73.386509 64.2029336,73.8005411 64.2617582,74.2343526 C64.3052747,74.6102566 64.2557142,75.0956472 63.8991208,75.3061048 L64.7513186,74.8073325 L64.6304395,71.1492633 C64.3596703,70.9886829 63.8906593,70.7733593 63.61989,70.652924 L63.61989,72.7793972 C63.6827472,72.8584709 63.7443955,72.9399776 63.7987911,73.0251338 L63.7987912,73.0251339 Z"
                id="路径" fill="#90D6F4"></path>
              <path class="icon-path-circle"
                d="M64.7912088,74.7817857 L65.3956044,74.425346 L65.2747253,71.6942634 L65.2747253,71.6942634 C65.033737,71.4322315 64.7505281,71.2130174 64.437033,71.0458594 L64.4128571,71.0336942 L64.4128571,74.9983259 L64.7912088,74.7817857 Z"
                id="路径" fill="#90D6F4"></path>
              <path class="icon-path-circle"
                d="M65.3883516,74.4326451 L65.3883517,74.432645 C65.4980013,74.3765811 65.6030887,74.3119054 65.7026374,74.2392187 C65.9649451,74.0226785 66.0193407,73.6528571 66.0000001,73.3316964 L66.0000002,73.3316974 C65.9396967,72.6226353 65.6107706,71.9640636 65.0813201,71.4923224 L65.0813201,74.6126907 L65.3883516,74.4326451 Z"
                id="路径" fill="#90D6F4"></path>
              <path class="icon-path-circle"
                d="M62.9175824,72.1638393 C63.6875824,72.6090848 64.2823077,73.5677009 64.2763094,74.4752232 C64.2763094,74.8255804 64.1553846,75.2282478 63.7927473,75.3596317 C63.36,75.5165625 62.9296703,75.1954018 62.5597802,75.0165737 L62.5597807,75.0165739 C61.6388946,74.553639 60.6512928,74.2395791 59.6332972,74.0859378 L59.6332978,74.0859378 C58.5406787,73.9425408 57.4300462,74.0451717 56.3816495,74.3864178 C54.1067044,75.1163285 52.297144,76.7513285 50.2168143,77.8607928 C49.2123088,78.3960606 48.1268143,78.7950785 46.9832978,78.8522548 C45.8397814,78.9094311 44.7712099,78.6089512 43.7389022,78.1697883 C41.5993418,77.2501008 39.7232978,75.8425896 38.0104407,74.2769311 C36.2178033,72.6382816 34.5726385,70.8439178 32.8223088,69.1675561 L32.8223083,69.1675557 C31.2027699,67.5836737 29.4566347,66.1364189 27.6015391,64.8404016 C25.6831875,63.5241293 23.6524182,62.3672208 21.3810996,61.799107 L21.3811005,61.7991072 C19.1655071,61.2596777 16.8540565,61.2596777 14.6384631,61.7991068 C12.9642873,62.2005577 11.2804411,62.8757251 9.86011145,63.8671871 L9.86011148,63.8671871 C9.76610706,63.9439556 9.65927687,64.0032729 9.54461698,64.0423657 L9.54461698,64.0423657 C9.28520918,64.0922925 9.01664962,64.0405005 8.79395764,63.8976001 L8.7939576,63.8976 C8.35188694,63.627162 7.99744034,63.2332572 7.77373782,62.7638054 C7.47879276,62.1835264 7.22978177,61.2200442 7.8583532,60.7674996 L7.85835433,60.7674988 C8.48257532,60.3305146 9.14394004,59.9498869 9.83472796,59.6300546 L9.83472732,59.6300549 C10.6536386,59.2397814 11.502557,58.9167582 12.3731889,58.6641409 L12.3731883,58.6641411 C14.4374169,58.0598444 16.6011774,57.8786538 18.7362653,58.1313063 L18.7362658,58.1313063 C21.0183669,58.4272279 23.2205306,59.1712101 25.2178042,60.3210385 L25.2178046,60.3210387 C27.1937068,61.4489454 29.0658585,62.7517144 30.8120903,64.2138958 C32.5950574,65.6956146 34.2438486,67.324532 35.8732991,68.9729137 C37.5027497,70.6212954 39.1225299,72.3244204 41.0336288,73.6443423 C41.970442,74.2915298 43.0015409,74.8766749 44.0858266,75.2331146 C45.2160464,75.6041525 46.3825299,75.4934494 47.4801123,75.057936 C48.5776947,74.6224226 49.5797826,73.9375231 50.5709914,73.286686 C51.5211013,72.6626124 52.478464,72.0446213 53.5107716,71.5640967 L53.5107717,71.5640967 C54.4932083,71.0963505 55.5465211,70.7974155 56.6270354,70.6796882 L56.6270348,70.6796883 C57.7304267,70.5775412 58.8430755,70.6722614 59.9137381,70.9594874 L59.9137381,70.9594874 C60.9580056,71.2424494 61.966048,71.6466119 62.9175843,72.1638388 L62.9175824,72.1638393 Z"
                id="路径" fill="#B6E8FD"></path>
            </g>
          </g>
          <circle class="icon-path" id="椭圆形复制" stroke="url(#linearGradient-8)" cx="4.5" cy="168.375227" r="4.5">
          </circle>
          <circle class="icon-path" id="椭圆形复制-7" stroke="url(#linearGradient-8)" cx="286.5" cy="60.3752272" r="4.5">
          </circle>
          <circle class="icon-path" id="椭圆形复制-8" stroke="url(#linearGradient-8)" cx="33.5" cy="5.37522719" r="4.5">
          </circle>
          <line x1="4.5" y1="172.875227" x2="4.5" y2="222.978859" id="直线复制" stroke="url(#linearGradient-10)"
            stroke-linecap="square"></line>
          <line x1="286.5" y1="64.8752272" x2="286.5" y2="114.978859" id="直线复制-6" stroke="url(#linearGradient-10)"
            stroke-linecap="square"></line>
          <line x1="33.5" y1="9.87522719" x2="33.5" y2="59.9788585" id="直线复制-7" stroke="url(#linearGradient-10)"
            stroke-linecap="square"></line>
        </g>
      </g>
    </g>
  </svg>